<svg width="396" height="426" viewBox="0 0 396 426" fill="none" xmlns="http://www.w3.org/2000/svg">
<path d="M144.806 241.698L315.982 285.769C321.789 287.256 327.948 286.381 333.11 283.334C338.272 280.287 342.014 275.317 343.515 269.516L395.283 68.5269C396.771 62.7217 395.896 56.5633 392.848 51.4028C389.8 46.2423 384.83 42.5012 379.027 41.0001L219.775 0L179.014 18.2433L128.549 214.172C127.061 219.977 127.937 226.135 130.984 231.296C134.032 236.456 139.003 240.197 144.806 241.698V241.698Z" fill="#F2F2F2"/>
<path d="M377.403 47.3018C381.536 48.3707 385.076 51.0349 387.246 54.7098C389.416 58.3846 390.04 62.7702 388.98 66.9042L337.212 267.893C336.143 272.025 333.478 275.563 329.802 277.733C326.127 279.903 321.74 280.527 317.605 279.467L146.429 235.397C142.296 234.328 138.757 231.664 136.586 227.989C134.416 224.314 133.792 219.928 134.852 215.794L184.535 22.902L220.357 6.86926L377.403 47.3018Z" fill="white"/>
<path d="M179.449 19.2802L205.941 26.1007C207.875 26.5986 209.927 26.308 211.647 25.2928C213.367 24.2777 214.613 22.6211 215.111 20.6876L220.149 1.12533C220.171 1.03968 220.169 0.949557 220.142 0.865285C220.115 0.781014 220.065 0.70601 219.998 0.64887C219.93 0.591731 219.848 0.554771 219.76 0.542231C219.673 0.52969 219.583 0.542074 219.502 0.577965L179.375 18.3945C179.286 18.4342 179.211 18.5006 179.161 18.5847C179.112 18.6687 179.089 18.7662 179.097 18.8635C179.105 18.9609 179.144 19.0533 179.207 19.128C179.27 19.2026 179.354 19.2558 179.449 19.2802V19.2802Z" fill="#F2F2F2"/>
<path d="M193.386 190.92L271.32 210.985C271.799 211.108 272.298 211.136 272.787 211.067C273.277 210.997 273.748 210.832 274.174 210.581C274.599 210.33 274.971 209.997 275.269 209.602C275.566 209.207 275.782 208.757 275.905 208.278C276.029 207.8 276.056 207.301 275.987 206.812C275.918 206.322 275.753 205.851 275.501 205.426C275.25 205 274.917 204.628 274.522 204.331C274.127 204.034 273.677 203.818 273.198 203.694L195.264 183.63C194.785 183.506 194.287 183.479 193.797 183.548C193.308 183.617 192.837 183.782 192.411 184.034C191.985 184.285 191.613 184.618 191.316 185.013C191.019 185.408 190.802 185.858 190.679 186.336C190.556 186.815 190.528 187.313 190.597 187.803C190.667 188.292 190.832 188.763 191.083 189.189C191.334 189.614 191.667 189.986 192.062 190.283C192.458 190.581 192.907 190.797 193.386 190.92Z" fill="#CCCCCC"/>
<path d="M175.177 199.351L268.152 223.287C269.119 223.536 270.145 223.391 271.005 222.884C271.865 222.376 272.488 221.548 272.737 220.581C272.986 219.614 272.84 218.588 272.333 217.728C271.825 216.869 270.996 216.246 270.029 215.997L177.055 192.06C176.089 191.812 175.063 191.958 174.204 192.466C173.345 192.974 172.722 193.802 172.474 194.768C172.225 195.734 172.37 196.759 172.877 197.619C173.384 198.478 174.211 199.101 175.177 199.351V199.351Z" fill="#CCCCCC"/>
<path d="M303.129 235.151C295.779 235.151 289.821 229.194 289.821 221.846C289.821 214.499 295.779 208.542 303.129 208.542C310.478 208.542 316.436 214.499 316.436 221.846C316.436 229.194 310.478 235.151 303.129 235.151Z" fill="#E6E6E6"/>
<path d="M201.673 156.102L305.177 182.74C308.168 183.506 311.342 183.055 314 181.485C316.659 179.915 318.587 177.355 319.36 174.366L341.051 90.1212C341.817 87.1305 341.366 83.9581 339.795 81.2998C338.225 78.6415 335.664 76.7145 332.675 75.9415L229.17 49.3037C226.179 48.5374 223.006 48.9887 220.347 50.5586C217.688 52.1285 215.761 54.6888 214.988 57.6777L193.297 141.922C192.53 144.913 192.982 148.086 194.552 150.744C196.122 153.402 198.683 155.329 201.673 156.102Z" fill="white"/>
<path d="M201.673 156.102L305.177 182.74C308.168 183.506 311.342 183.055 314 181.485C316.659 179.915 318.587 177.355 319.36 174.366L341.051 90.1212C341.817 87.1305 341.366 83.9581 339.795 81.2998C338.225 78.6415 335.664 76.7145 332.675 75.9415L229.17 49.3037C226.179 48.5374 223.006 48.9887 220.347 50.5586C217.688 52.1285 215.761 54.6888 214.988 57.6777L193.297 141.922C192.53 144.913 192.982 148.086 194.552 150.744C196.122 153.402 198.683 155.329 201.673 156.102ZM332.333 77.2682C334.971 77.9502 337.231 79.6505 338.616 81.9961C340.002 84.3416 340.4 87.1409 339.724 89.7797L318.033 174.024C317.351 176.662 315.65 178.921 313.304 180.306C310.958 181.691 308.158 182.089 305.519 181.413L202.014 154.775C199.376 154.093 197.117 152.393 195.731 150.047C194.346 147.702 193.948 144.903 194.624 142.264L216.315 58.0192C216.997 55.3819 218.697 53.1229 221.044 51.7377C223.39 50.3525 226.189 49.9543 228.829 50.6303L332.333 77.2682Z" fill="#E6E6E6"/>
<path d="M234.421 77.63L286.659 91.0738C287.115 91.2013 287.604 91.1506 288.024 90.9321C288.445 90.7136 288.767 90.3435 288.925 89.8967C288.999 89.6632 289.025 89.4172 289 89.1737C288.975 88.9301 288.901 88.6942 288.783 88.4801C288.664 88.2661 288.503 88.0785 288.309 87.9288C288.115 87.7791 287.893 87.6704 287.656 87.6094L234.482 73.9244C232.334 75.0126 232.899 77.2382 234.422 77.6302L234.421 77.63Z" fill="#F2F2F2"/>
<path d="M232.063 86.7908L284.3 100.235C284.757 100.362 285.245 100.311 285.666 100.093C286.086 99.8743 286.408 99.5043 286.567 99.0574C286.64 98.824 286.666 98.578 286.641 98.3344C286.617 98.0909 286.543 97.8549 286.424 97.6409C286.305 97.4269 286.144 97.2392 285.95 97.0895C285.757 96.9398 285.534 96.8312 285.297 96.7701L232.123 83.0852C229.975 84.1733 230.54 86.3989 232.063 86.791L232.063 86.7908Z" fill="#F2F2F2"/>
<path d="M294.25 108.357L310.192 112.46C310.713 112.593 311.265 112.514 311.728 112.241C312.191 111.968 312.526 111.522 312.661 111.002L317.503 92.1928C317.637 91.6723 317.558 91.1201 317.285 90.6573C317.012 90.1946 316.566 89.8592 316.046 89.7247L300.103 85.6218C299.583 85.4886 299.03 85.5672 298.568 85.8404C298.105 86.1137 297.769 86.5592 297.635 87.0794L292.792 105.889C292.658 106.409 292.737 106.961 293.01 107.424C293.283 107.887 293.729 108.222 294.25 108.357V108.357Z" fill="#E6E6E6"/>
<path d="M227.385 105.587L307.109 126.104C307.566 126.232 308.054 126.181 308.475 125.963C308.895 125.744 309.217 125.374 309.376 124.927C309.449 124.694 309.475 124.448 309.45 124.204C309.426 123.961 309.352 123.725 309.233 123.511C309.114 123.297 308.953 123.109 308.759 122.959C308.566 122.81 308.343 122.701 308.106 122.64L227.445 101.881C225.297 102.969 225.862 105.195 227.385 105.587L227.385 105.587Z" fill="#F2F2F2"/>
<path d="M225.026 114.75L304.75 135.268C305.206 135.395 305.694 135.345 306.115 135.126C306.536 134.907 306.858 134.537 307.016 134.091C307.09 133.857 307.115 133.611 307.091 133.368C307.066 133.124 306.992 132.888 306.874 132.674C306.755 132.46 306.594 132.272 306.4 132.123C306.206 131.973 305.984 131.864 305.747 131.803L225.086 111.044C222.938 112.132 223.503 114.358 225.026 114.75V114.75Z" fill="#F2F2F2"/>
<path d="M222.668 123.908L302.392 144.425C302.849 144.553 303.337 144.502 303.757 144.284C304.178 144.065 304.5 143.695 304.659 143.248C304.732 143.015 304.758 142.769 304.733 142.525C304.709 142.282 304.635 142.046 304.516 141.832C304.397 141.617 304.236 141.43 304.042 141.28C303.848 141.13 303.626 141.022 303.389 140.961L222.728 120.202C220.58 121.29 221.145 123.516 222.668 123.908V123.908Z" fill="#F2F2F2"/>
<path d="M220.309 133.07L300.033 153.588C300.489 153.715 300.978 153.665 301.398 153.446C301.819 153.228 302.141 152.858 302.299 152.411C302.373 152.177 302.399 151.931 302.374 151.688C302.349 151.444 302.276 151.208 302.157 150.994C302.038 150.78 301.877 150.593 301.683 150.443C301.489 150.293 301.267 150.184 301.03 150.123L220.369 129.365C218.221 130.453 218.786 132.678 220.309 133.07L220.309 133.07Z" fill="#F2F2F2"/>
<path d="M217.951 142.228L297.675 162.746C298.132 162.874 298.62 162.823 299.04 162.604C299.461 162.386 299.783 162.016 299.942 161.569C300.015 161.336 300.041 161.09 300.016 160.846C299.992 160.602 299.918 160.366 299.799 160.152C299.68 159.938 299.519 159.751 299.325 159.601C299.131 159.451 298.909 159.343 298.672 159.282L218.011 138.523C215.863 139.611 216.428 141.836 217.951 142.228V142.228Z" fill="#F2F2F2"/>
<path d="M302.147 226.51C302.437 226.585 302.743 226.564 303.02 226.45L303.037 226.443L306.662 224.906C306.83 224.835 306.983 224.731 307.111 224.601C307.239 224.471 307.34 224.317 307.409 224.147C307.477 223.978 307.512 223.797 307.51 223.614C307.508 223.431 307.471 223.251 307.399 223.083C307.328 222.915 307.224 222.762 307.093 222.635C306.963 222.507 306.809 222.406 306.639 222.338C306.47 222.269 306.288 222.235 306.106 222.237C305.923 222.239 305.743 222.277 305.575 222.349L303.225 223.348L300.147 216.108C300.076 215.94 299.972 215.788 299.842 215.66C299.712 215.532 299.558 215.432 299.388 215.363C299.219 215.295 299.038 215.261 298.856 215.263C298.673 215.264 298.493 215.302 298.325 215.373L298.325 215.374L298.343 215.421L298.324 215.373C297.985 215.518 297.718 215.791 297.58 216.132C297.442 216.474 297.446 216.856 297.589 217.195L301.211 225.708C301.295 225.904 301.423 226.078 301.585 226.217C301.747 226.356 301.939 226.455 302.146 226.508L302.147 226.51Z" fill="white"/>
<path d="M79.1492 318.29H255.91C261.904 318.283 267.651 315.899 271.889 311.662C276.128 307.424 278.512 301.679 278.519 295.686V88.1402C278.512 82.1473 276.128 76.4018 271.889 72.1642C267.651 67.9266 261.904 65.543 255.91 65.5362H91.4629L56.5402 93.3657V295.686C56.547 301.679 58.9312 307.424 63.1697 311.662C67.4082 315.899 73.155 318.283 79.1492 318.29V318.29Z" fill="#E6E6E6"/>
<path d="M255.91 72.0434C260.179 72.0482 264.271 73.7457 267.289 76.7633C270.308 79.781 272.006 83.8725 272.01 88.1402V295.686C272.006 299.954 270.308 304.045 267.289 307.063C264.271 310.08 260.179 311.778 255.91 311.783H79.1492C74.8806 311.778 70.7882 310.08 67.7699 307.063C64.7515 304.045 63.0537 299.954 63.0489 295.686V96.5006L93.7396 72.0434H255.91Z" fill="white"/>
<path d="M113.529 132.392H194.006C195.004 132.392 195.962 131.996 196.668 131.29C197.374 130.584 197.771 129.626 197.771 128.628C197.771 127.63 197.374 126.672 196.668 125.966C195.962 125.26 195.004 124.864 194.006 124.864H113.529C112.531 124.864 111.573 125.26 110.867 125.966C110.161 126.672 109.764 127.63 109.764 128.628C109.764 129.626 110.161 130.584 110.867 131.29C111.573 131.996 112.531 132.392 113.529 132.392V132.392Z" fill="#6D89D0"/>
<path d="M97.9986 145.096H194.006C195.004 145.095 195.96 144.698 196.665 143.992C197.37 143.286 197.766 142.329 197.766 141.332C197.766 140.335 197.37 139.378 196.665 138.672C195.96 137.966 195.004 137.569 194.006 137.568H97.9986C97.5038 137.567 97.0136 137.664 96.5563 137.853C96.0989 138.042 95.6833 138.319 95.3331 138.669C94.983 139.018 94.7052 139.433 94.5156 139.89C94.3261 140.347 94.2286 140.837 94.2286 141.332C94.2286 141.827 94.3261 142.317 94.5156 142.774C94.7052 143.231 94.983 143.646 95.3331 143.996C95.6833 144.345 96.0989 144.622 96.5563 144.811C97.0136 145 97.5038 145.097 97.9986 145.096V145.096Z" fill="#6D89D0"/>
<path d="M113.529 181.795H194.003C195.001 181.795 195.959 182.191 196.665 182.897C197.371 183.603 197.768 184.56 197.768 185.559C197.768 186.557 197.371 187.514 196.665 188.22C195.959 188.926 195.001 189.322 194.003 189.322H113.529C112.53 189.322 111.573 188.926 110.867 188.22C110.161 187.514 109.764 186.557 109.764 185.559C109.764 184.56 110.161 183.603 110.867 182.897C111.573 182.191 112.53 181.795 113.529 181.795V181.795Z" fill="#CCCCCC"/>
<path d="M97.9971 194.501H194.003C195.001 194.501 195.959 194.897 196.665 195.603C197.371 196.309 197.768 197.267 197.768 198.265C197.768 199.263 197.371 200.22 196.665 200.926C195.959 201.632 195.001 202.029 194.003 202.029H97.9971C96.9987 202.029 96.0411 201.632 95.3351 200.926C94.629 200.22 94.2324 199.263 94.2324 198.265C94.2324 197.267 94.629 196.309 95.3351 195.603C96.0411 194.897 96.9987 194.501 97.9971 194.501Z" fill="#CCCCCC"/>
<path d="M113.529 246.258H194.006C195.004 246.258 195.962 245.862 196.668 245.156C197.374 244.45 197.771 243.492 197.771 242.494C197.771 241.496 197.374 240.538 196.668 239.832C195.962 239.126 195.004 238.73 194.006 238.73H113.529C112.531 238.73 111.573 239.126 110.867 239.832C110.161 240.538 109.764 241.496 109.764 242.494C109.764 243.492 110.161 244.45 110.867 245.156C111.573 245.862 112.531 246.258 113.529 246.258V246.258Z" fill="#CCCCCC"/>
<path d="M97.9986 258.962H194.006C195.004 258.961 195.96 258.564 196.665 257.858C197.37 257.152 197.766 256.196 197.766 255.198C197.766 254.201 197.37 253.244 196.665 252.538C195.96 251.832 195.004 251.435 194.006 251.434H97.9986C97.5038 251.433 97.0136 251.53 96.5563 251.719C96.0989 251.908 95.6833 252.185 95.3331 252.535C94.983 252.884 94.7052 253.299 94.5156 253.756C94.3261 254.213 94.2286 254.703 94.2286 255.198C94.2286 255.693 94.3261 256.183 94.5156 256.64C94.7052 257.097 94.983 257.512 95.3331 257.862C95.6833 258.211 96.0989 258.488 96.5563 258.677C97.0136 258.866 97.5038 258.963 97.9986 258.962Z" fill="#CCCCCC"/>
<path d="M227.519 148.284C220.169 148.284 214.211 142.328 214.211 134.98C214.211 127.632 220.169 121.676 227.519 121.676C234.868 121.676 240.826 127.632 240.826 134.98C240.826 142.328 234.868 148.284 227.519 148.284Z" fill="#6D89D0"/>
<path d="M228.837 140.055C229.136 140.056 229.428 139.959 229.667 139.779L229.682 139.768L232.81 137.376C232.955 137.265 233.077 137.127 233.169 136.969C233.26 136.811 233.32 136.636 233.344 136.455C233.368 136.274 233.356 136.09 233.309 135.913C233.262 135.737 233.181 135.571 233.069 135.426C232.958 135.281 232.819 135.16 232.661 135.068C232.503 134.977 232.328 134.918 232.147 134.894C231.966 134.87 231.782 134.883 231.605 134.93C231.429 134.978 231.263 135.059 231.118 135.171L229.093 136.724L224.306 130.481C224.195 130.336 224.057 130.214 223.899 130.123C223.741 130.032 223.566 129.972 223.386 129.949C223.205 129.925 223.021 129.937 222.845 129.984C222.668 130.031 222.503 130.112 222.358 130.223L222.358 130.224L222.388 130.265L222.357 130.224C222.065 130.448 221.874 130.779 221.826 131.144C221.778 131.509 221.876 131.879 222.1 132.171L227.73 139.512C227.861 139.681 228.028 139.818 228.22 139.912C228.412 140.006 228.622 140.054 228.836 140.054L228.837 140.055Z" fill="white"/>
<path d="M212.844 191.912C212.843 193.659 213.187 195.389 213.855 197.004C214.523 198.619 215.503 200.086 216.739 201.322C217.974 202.557 219.441 203.538 221.056 204.207C222.67 204.876 224.401 205.22 226.149 205.221C226.263 205.223 226.377 205.218 226.491 205.207C229.108 205.14 231.646 204.303 233.789 202.8C235.932 201.298 237.585 199.197 238.539 196.761C239.494 194.324 239.709 191.66 239.157 189.102C238.605 186.544 237.311 184.206 235.436 182.38C233.562 180.553 231.19 179.321 228.618 178.835C226.046 178.35 223.388 178.634 220.977 179.651C218.565 180.668 216.507 182.374 215.061 184.555C213.614 186.736 212.843 189.295 212.844 191.912V191.912Z" fill="#CCCCCC"/>
<path d="M227.519 262.15C220.169 262.15 214.211 256.194 214.211 248.846C214.211 241.498 220.169 235.542 227.519 235.542C234.868 235.542 240.826 241.498 240.826 248.846C240.826 256.194 234.868 262.15 227.519 262.15Z" fill="#CCCCCC"/>
<path d="M57.22 94.2614H84.5762C86.5733 94.2614 88.4886 93.4682 89.9007 92.0564C91.3129 90.6445 92.1062 88.7297 92.1062 86.733V66.5326C92.1062 66.4442 92.0813 66.3575 92.0343 66.2826C91.9873 66.2077 91.9201 66.1475 91.8405 66.109C91.7608 66.0705 91.6719 66.0552 91.584 66.0649C91.4961 66.0746 91.4127 66.1089 91.3433 66.1638L56.9278 93.422C56.8512 93.4827 56.7954 93.5657 56.7681 93.6595C56.7409 93.7533 56.7435 93.8533 56.7756 93.9455C56.8077 94.0378 56.8678 94.1178 56.9474 94.1744C57.027 94.231 57.1223 94.2614 57.22 94.2614Z" fill="#CCCCCC"/>
<path d="M212.844 191.912C212.843 193.659 213.187 195.389 213.855 197.004C214.523 198.619 215.503 200.086 216.739 201.322C217.974 202.557 219.441 203.538 221.056 204.207C222.67 204.876 224.401 205.22 226.149 205.221C226.263 205.223 226.377 205.218 226.491 205.207C228.21 200.92 228.873 196.282 228.424 191.686C227.974 187.089 226.425 182.667 223.908 178.794C220.813 179.325 218.005 180.932 215.98 183.333C213.955 185.733 212.844 188.772 212.844 191.912V191.912Z" fill="#6D89D0"/>
<path d="M197.771 185.562C197.769 184.563 197.372 183.606 196.665 182.9C195.959 182.194 195.002 181.796 194.003 181.795H173.949C172.778 184.176 171.946 186.71 171.476 189.322H194.003C195.001 189.322 195.958 188.926 196.665 188.221C197.371 187.516 197.769 186.56 197.771 185.562V185.562Z" fill="#6D89D0"/>
<path d="M171.01 194.501C171.009 197.043 171.345 199.575 172.01 202.029H194.003C195.001 202.029 195.959 201.632 196.665 200.926C197.371 200.22 197.768 199.263 197.768 198.265C197.768 197.267 197.371 196.309 196.665 195.603C195.959 194.897 195.001 194.501 194.003 194.501H171.01Z" fill="#6D89D0"/>
<path d="M121.393 240.926C121.96 241.857 122.875 242.524 123.934 242.78C124.994 243.037 126.112 242.862 127.043 242.295L175.004 213.046C175.465 212.765 175.866 212.396 176.184 211.96C176.503 211.524 176.732 211.03 176.859 210.506C176.986 209.981 177.009 209.437 176.925 208.903C176.842 208.37 176.654 207.858 176.373 207.398C176.092 206.937 175.723 206.536 175.287 206.218C174.851 205.9 174.356 205.671 173.832 205.544C173.307 205.416 172.762 205.394 172.229 205.477C171.696 205.561 171.184 205.748 170.723 206.029L122.761 235.278C121.831 235.845 121.164 236.759 120.907 237.819C120.65 238.878 120.825 239.996 121.393 240.926V240.926Z" fill="#3F3D56"/>
<path d="M169.354 211.678C172.741 217.229 177.699 221.652 183.6 224.387C189.501 227.121 196.081 228.045 202.507 227.041C208.933 226.037 214.917 223.151 219.702 218.746C224.488 214.342 227.859 208.618 229.391 202.298C230.922 195.978 230.545 189.346 228.306 183.241C226.068 177.135 222.068 171.831 216.814 167.998C211.56 164.165 205.287 161.975 198.789 161.707C192.29 161.438 185.858 163.102 180.305 166.488C172.867 171.036 167.536 178.347 165.483 186.819C163.43 195.291 164.823 204.231 169.354 211.678ZM218.486 181.716C221.026 185.88 222.274 190.703 222.073 195.576C221.871 200.449 220.229 205.153 217.353 209.092C214.478 213.032 210.499 216.031 205.918 217.709C201.338 219.388 196.363 219.671 191.622 218.523C186.881 217.374 182.587 214.846 179.283 211.258C175.98 207.67 173.814 203.183 173.061 198.364C172.308 193.546 173.001 188.612 175.052 184.187C177.104 179.762 180.421 176.045 184.586 173.505C190.172 170.107 196.879 169.063 203.234 170.603C209.589 172.142 215.074 176.139 218.486 181.716V181.716Z" fill="#3F3D56"/>
<path d="M63.9889 199.829C54.6955 199.829 47.1617 192.296 47.1617 183.005C47.1617 173.714 54.6955 166.181 63.9889 166.181C73.2824 166.181 80.8162 173.714 80.8162 183.005C80.8162 192.296 73.2824 199.829 63.9889 199.829Z" fill="#A0616A"/>
<path d="M65.0765 277.319C65.4011 276.308 65.5083 275.24 65.3911 274.185C65.274 273.13 64.9352 272.111 64.3968 271.196C63.8585 270.281 63.1328 269.49 62.2673 268.875C61.4018 268.259 60.416 267.834 59.3746 267.626C59.0447 267.562 58.7106 267.521 58.3749 267.503L40.6498 239.061L56.8407 223.672C57.4594 223.084 57.9554 222.379 58.3002 221.598C58.6449 220.818 58.8315 219.976 58.8492 219.123C58.8669 218.27 58.7154 217.422 58.4034 216.627C58.0914 215.833 57.625 215.108 57.0313 214.495C56.4376 213.882 55.7283 213.393 54.9443 213.055C54.1603 212.718 53.3172 212.539 52.4637 212.529C51.6102 212.519 50.7632 212.678 49.9715 212.997C49.1799 213.317 48.4594 213.789 47.8515 214.389L25.4965 236.427L25.4515 236.481C24.76 237.533 24.4262 238.78 24.4995 240.037C24.5729 241.294 25.0496 242.493 25.8588 243.458L50.6944 272.824C50.6202 273.06 50.5585 273.299 50.5094 273.541C50.3017 274.582 50.3165 275.655 50.5526 276.691C50.7888 277.726 51.2411 278.699 51.8798 279.548C52.5186 280.396 53.3294 281.1 54.2592 281.613C55.189 282.126 56.2167 282.437 57.275 282.525C57.4889 282.544 57.7018 282.553 57.9136 282.553C59.5068 282.546 61.0572 282.037 62.3435 281.097C63.6298 280.157 64.5863 278.835 65.0765 277.319V277.319Z" fill="#A0616A"/>
<path d="M91.7034 417.147L100.103 417.146L104.099 384.756L91.7021 384.756L91.7034 417.147Z" fill="#A0616A"/>
<path d="M89.5616 425.287L116.645 425.286V424.944C116.645 423.56 116.372 422.189 115.842 420.91C115.313 419.632 114.536 418.47 113.557 417.491C112.578 416.513 111.416 415.736 110.137 415.207C108.858 414.677 107.487 414.405 106.103 414.405H106.102L89.561 414.405L89.5616 425.287Z" fill="#2F2E41"/>
<path d="M8.2175 405.536L15.4345 409.832L35.4435 384.046L24.7919 377.705L8.2175 405.536Z" fill="#A0616A"/>
<path d="M2.2117 411.435L25.4824 425.287L25.6577 424.993C26.3659 423.804 26.833 422.487 27.0322 421.117C27.2313 419.747 27.1587 418.352 26.8185 417.01C26.4782 415.669 25.877 414.407 25.0491 413.298C24.2212 412.189 23.1829 411.254 21.9934 410.545L21.9928 410.545L7.77989 402.085L2.2117 411.435Z" fill="#2F2E41"/>
<path d="M105.158 402.882C110.785 336.642 114.132 275.105 93.563 250.002L93.404 249.807L58.7879 263.651L58.7308 263.775C58.6141 264.029 47.1017 289.346 49.7871 306.376L41.2487 345.644L13.4084 392.25C13.1843 392.625 13.0425 393.043 12.9925 393.478C12.9424 393.912 12.9852 394.352 13.1181 394.768C13.2509 395.184 13.4708 395.568 13.7631 395.892C14.0553 396.217 14.4134 396.476 14.8134 396.653L26.912 401.974C27.5948 402.272 28.3617 402.313 29.0724 402.091C29.7831 401.869 30.39 401.398 30.7819 400.765L61.067 351.392L78.1729 313.523C78.2659 313.318 78.4239 313.148 78.6226 313.041C78.8213 312.935 79.0497 312.896 79.2725 312.932C79.4952 312.968 79.7001 313.076 79.8553 313.239C80.0106 313.403 80.1077 313.613 80.1316 313.838L89.6137 402.95C89.693 403.707 90.0503 404.408 90.6165 404.917C91.1828 405.426 91.9178 405.708 92.6794 405.706H102.085C102.857 405.702 103.599 405.41 104.167 404.888C104.735 404.366 105.089 403.651 105.158 402.882V402.882Z" fill="#2F2E41"/>
<path d="M93.4465 250.527L93.6114 250.448L93.6371 250.266C94.9303 241.218 93.3996 231.164 89.088 220.385C86.9628 215.109 83.0126 210.772 77.957 208.164C72.9015 205.556 67.0771 204.851 61.5449 206.176C58.3582 206.961 55.3693 208.399 52.7676 210.4C50.1659 212.4 48.0081 214.919 46.4308 217.796C44.8737 220.644 43.9252 223.784 43.6454 227.018C43.3655 230.252 43.7605 233.508 44.8051 236.581C50.2407 252.473 57.292 267.341 57.3626 267.49L57.5103 267.8L93.4465 250.527Z" fill="#B10028"/>
<path d="M131.214 227.989C130.381 227.331 129.418 226.856 128.388 226.597C127.358 226.337 126.286 226.297 125.24 226.481C124.194 226.665 123.198 227.067 122.319 227.662C121.439 228.257 120.695 229.032 120.136 229.934C119.96 230.22 119.805 230.519 119.671 230.827L86.8164 237.466L78.0686 216.914C77.7344 216.129 77.2479 215.418 76.6372 214.822C76.0265 214.225 75.3037 213.756 74.5106 213.441C73.7174 213.125 72.8696 212.97 72.0162 212.984C71.1627 212.998 70.3205 213.181 69.5381 213.522C68.7558 213.864 68.0488 214.357 67.4581 214.973C66.8673 215.589 66.4045 216.315 66.0963 217.111C65.7881 217.907 65.6406 218.756 65.6624 219.609C65.6842 220.462 65.8749 221.303 66.2234 222.082L79.042 250.734L79.0776 250.795C79.821 251.811 80.8723 252.561 82.0753 252.932C83.2784 253.303 84.5691 253.277 85.756 252.857L121.966 239.883C122.161 240.035 122.363 240.177 122.573 240.307C123.476 240.866 124.486 241.229 125.539 241.37C126.592 241.511 127.662 241.429 128.681 241.127C129.699 240.826 130.642 240.313 131.448 239.622C132.255 238.931 132.906 238.078 133.359 237.118C133.452 236.924 133.535 236.728 133.609 236.53C134.161 235.035 134.226 233.405 133.796 231.871C133.366 230.337 132.463 228.979 131.214 227.989V227.989Z" fill="#A0616A"/>
<path d="M3.19932 201.022C4.82012 198.15 7.18158 195.52 10.3034 194.459C14.3352 193.088 18.7008 194.548 22.846 195.522C26.0398 196.273 29.3764 196.732 32.5956 196.099C35.8144 195.465 38.9195 193.592 40.3841 190.658C42.5388 186.34 40.7237 181.191 40.8548 176.367C40.9222 173.742 41.5849 171.165 42.7929 168.833C44.001 166.5 45.7228 164.473 47.8287 162.902C49.9347 161.332 52.3697 160.26 54.9502 159.767C57.5308 159.274 60.1896 159.374 62.7261 160.058C66.6953 158.913 70.2892 158.807 72.7443 161.857C75.8333 161.857 78.7957 163.084 80.98 165.268C83.1642 167.452 84.3913 170.413 84.3914 173.502H73.2545C73.7825 176.341 73.1791 179.274 71.5731 181.674C69.6071 184.562 66.1885 186.651 65.5305 190.082C64.8925 193.406 67.153 196.56 69.5241 198.977C71.8949 201.394 74.6455 203.788 75.3858 207.091C75.8393 209.599 75.3243 212.185 73.9446 214.328C72.5673 216.444 70.8587 218.326 68.8842 219.901C59.9877 227.521 49.4144 232.929 38.028 235.683C30.0093 237.613 21.2386 238.113 13.7946 234.562C10.8168 233.142 8.16289 231.124 5.99784 228.635C3.83279 226.146 2.20284 223.239 1.2092 220.093C0.215554 216.948 -0.120532 213.631 0.221828 210.351C0.564187 207.07 1.57767 203.894 3.19932 201.022V201.022Z" fill="#2F2E41"/>
<path d="M0.685154 426H130.858C131.04 426 131.214 425.928 131.342 425.799C131.471 425.671 131.543 425.497 131.543 425.315C131.543 425.133 131.471 424.959 131.342 424.831C131.214 424.702 131.04 424.63 130.858 424.63H0.685154C0.503449 424.63 0.329196 424.702 0.200711 424.831C0.0722263 424.959 3.43323e-05 425.133 3.43323e-05 425.315C3.43323e-05 425.497 0.0722263 425.671 0.200711 425.799C0.329196 425.928 0.503449 426 0.685154 426Z" fill="#CCCCCC"/>
</svg>
