<svg width="511" height="457" viewBox="0 0 511 457" fill="none" xmlns="http://www.w3.org/2000/svg">
<ellipse cx="283.976" cy="215" rx="220.942" ry="193" fill="#12204B" fill-opacity="0.17"/>
<path d="M462.352 338.818L480.555 336.896C484.5 328.721 486.243 319.773 485.633 310.829C475.737 323.824 454.804 323.616 440.894 332.887C436.579 335.81 433.025 339.599 430.496 343.975C427.968 348.35 426.528 353.2 426.285 358.164L420.274 368.895C428.835 369.768 437.497 368.902 445.664 366.356C453.831 363.81 461.308 359.645 467.581 354.148C471.067 351.032 474.118 347.519 476.662 343.693C469.499 341.673 462.352 338.818 462.352 338.818Z" fill="#F2F2F2"/>
<path d="M448.492 314.399L463.864 305.116C463.481 296.16 460.757 287.427 455.928 279.675C453.294 295.418 434.458 303.928 426.446 318.005C423.983 322.413 422.617 327.281 422.448 332.248C422.28 337.215 423.313 342.154 425.472 346.698L425.23 358.799C433.31 356.024 440.649 351.65 446.739 345.979C452.83 340.307 457.529 333.473 460.511 325.948C462.14 321.71 463.189 317.299 463.634 312.817C456.255 313.984 448.492 314.399 448.492 314.399Z" fill="#F2F2F2"/>
<path d="M381.756 428.009C412.222 428.009 436.919 405.003 436.919 376.624C436.919 348.245 412.222 325.239 381.756 325.239C351.291 325.239 326.594 348.245 326.594 376.624C326.594 405.003 351.291 428.009 381.756 428.009Z" fill="white"/>
<path d="M381.756 428.637C370.713 428.637 359.918 425.586 350.736 419.871C341.553 414.156 334.397 406.033 330.171 396.529C325.945 387.025 324.839 376.567 326.993 366.477C329.148 356.388 334.466 347.12 342.274 339.846C350.083 332.572 360.032 327.619 370.863 325.612C381.694 323.605 392.921 324.635 403.124 328.571C413.326 332.508 422.047 339.174 428.182 347.728C434.318 356.281 437.592 366.337 437.592 376.624C437.576 390.414 431.688 403.634 421.22 413.385C410.752 423.136 396.56 428.621 381.756 428.637ZM381.756 325.867C370.98 325.867 360.445 328.844 351.484 334.421C342.523 339.998 335.539 347.926 331.415 357.2C327.291 366.475 326.212 376.681 328.314 386.527C330.417 396.373 335.607 405.417 343.227 412.515C350.847 419.614 360.556 424.448 371.126 426.407C381.696 428.365 392.652 427.36 402.609 423.518C412.565 419.676 421.075 413.171 427.063 404.824C433.05 396.476 436.246 386.663 436.246 376.624C436.229 363.167 430.483 350.266 420.268 340.75C410.053 331.234 396.203 325.882 381.756 325.867Z" fill="#3F3D56"/>
<path d="M377.627 397.161C377.509 397.161 377.391 397.157 377.274 397.152C376.235 397.105 375.219 396.849 374.296 396.403C373.373 395.956 372.565 395.329 371.926 394.564L362.708 383.523C362.126 382.827 361.696 382.03 361.445 381.178C361.193 380.327 361.124 379.438 361.242 378.562C361.359 377.686 361.661 376.84 362.13 376.072C362.598 375.304 363.224 374.63 363.973 374.088L364.304 373.848C365.053 373.305 365.908 372.905 366.822 372.671C367.736 372.436 368.691 372.372 369.632 372.482C370.573 372.591 371.481 372.872 372.306 373.309C373.13 373.746 373.853 374.33 374.435 375.027C374.901 375.584 375.49 376.041 376.163 376.366C376.835 376.691 377.575 376.877 378.332 376.912C379.089 376.946 379.845 376.828 380.548 376.565C381.251 376.302 381.885 375.901 382.407 375.389L401.124 356.981C402.442 355.689 404.256 354.936 406.169 354.887C408.082 354.839 409.938 355.499 411.329 356.723L411.636 356.996C412.324 357.603 412.877 358.33 413.263 359.137C413.65 359.943 413.862 360.812 413.887 361.695C413.913 362.577 413.751 363.456 413.412 364.281C413.073 365.105 412.563 365.859 411.911 366.5L382.864 395.06C382.19 395.724 381.378 396.252 380.478 396.613C379.577 396.974 378.607 397.161 377.627 397.161V397.161Z" fill="#449C52"/>
<path d="M352.9 442.291L345.249 443.084L338 415.436L349.291 414.264L352.9 442.291Z" fill="#A0616A"/>
<path d="M403.302 317.99C403.064 317.77 402.806 317.555 402.55 317.351C400.576 315.826 398.513 314.403 396.37 313.089C393.946 311.584 391.219 310.049 388.134 308.463C386.641 307.695 385.063 306.911 383.4 306.11C382.567 305.709 381.71 305.305 380.829 304.898C380.791 304.878 380.752 304.859 380.713 304.842L380.458 304.722L361.892 318.998L360.573 319.963L363.993 323.891C363.993 323.891 363.695 327.015 363.702 327.016L360.307 334.908L360.27 334.924L348.174 340.067L335.71 345.368L329.015 348.216C327.463 348.875 326.067 349.815 324.908 350.981C323.749 352.147 322.851 353.517 322.266 355.009C321.65 356.56 321.372 358.209 321.448 359.86C321.524 361.512 321.951 363.132 322.706 364.628C322.856 364.933 323.024 365.239 323.203 365.533L325.985 381.826C327.646 391.571 330.877 401.027 335.569 409.874L339.818 425.126L340.463 424.825L350.073 420.341L352.611 419.159L353.091 408.911C353.145 407.743 353.153 406.569 353.108 405.397C353.043 403.478 352.846 401.566 352.519 399.671L347.009 367.713C347.987 367.342 348.951 366.969 349.903 366.594C354.312 364.875 358.487 363.138 362.427 361.382C375.24 355.677 385.679 349.755 394.207 343.34C396.604 341.541 398.852 339.7 400.951 337.815C401.723 337.127 402.474 336.432 403.205 335.73C403.378 335.568 403.548 335.408 403.715 335.244C405.217 333.776 406.299 331.98 406.864 330.021C407.428 328.063 407.456 326.004 406.945 324.032C406.373 321.736 405.109 319.64 403.302 317.99V317.99Z" fill="#2F2E41"/>
<path d="M352.277 437.451L343.995 438.303L342.696 438.436L343.541 443.017L333.917 451.775C333.441 452.207 333.126 452.771 333.018 453.382C332.909 453.993 333.014 454.621 333.316 455.173C333.618 455.725 334.102 456.172 334.696 456.45C335.291 456.728 335.965 456.821 336.621 456.717L350.288 454.536L351.808 449.629L353.562 454.013L358.71 453.193L354.29 437.245L352.277 437.451Z" fill="#2F2E41"/>
<path d="M360.158 278.818L367.249 271.813L357.246 251.425L355.759 244.264C355.565 243.334 355.113 242.467 354.448 241.751C353.782 241.034 352.926 240.493 351.966 240.181C351.005 239.869 349.973 239.797 348.974 239.973C347.974 240.149 347.042 240.566 346.269 241.182V241.182C345.125 242.096 344.406 243.389 344.265 244.787C344.124 246.185 344.571 247.579 345.513 248.676L351.036 255.107L360.158 278.818Z" fill="#A0616A"/>
<path d="M367.249 268.676L359.168 276.204L360.714 287.211C361.206 288.648 362.089 289.942 363.276 290.967C364.463 291.993 365.915 292.715 367.49 293.065V293.065C369.432 293.495 371.471 293.339 373.311 292.618C375.151 291.896 376.696 290.648 377.724 289.053L395.901 260.029C397.19 258.029 397.587 255.639 397.009 253.37C396.431 251.101 394.924 249.132 392.809 247.884V247.884C391.671 247.213 390.394 246.772 389.062 246.591C387.729 246.41 386.371 246.492 385.075 246.832C383.779 247.173 382.574 247.763 381.539 248.566C380.504 249.368 379.662 250.365 379.068 251.491L367.973 273.513L367.249 268.676Z" fill="#E6E6E6"/>
<path d="M359.108 379.764C358.69 380.16 358.272 380.551 357.848 380.943C357.005 381.727 356.151 382.504 355.293 383.271C354.862 383.655 354.426 384.041 353.994 384.42L353.998 384.434L353.969 384.445L353.96 384.452L353.241 384.798L351.452 382.343L350.627 381.213L349.461 379.611L347.324 376.682L336.075 361.258L346.164 356.407L346.958 357.847L346.963 357.846L347.356 358.56L354.734 371.876L356.24 374.599L356.288 374.681L357.193 376.306L357.974 377.715L358.845 379.29L359.108 379.764Z" fill="#A0616A"/>
<path d="M357.023 374.764L350.001 378.941L348.898 379.595L351.831 383.356L347.358 395.175C347.136 395.76 347.121 396.394 347.314 396.987C347.507 397.58 347.899 398.1 348.432 398.471C348.965 398.841 349.611 399.043 350.276 399.048C350.941 399.052 351.59 398.858 352.129 398.494L363.351 390.907L362.385 385.88L366.04 389.09L370.267 386.233L358.732 373.75L357.023 374.764Z" fill="#2F2E41"/>
<path d="M407.66 330.736C406.962 331.782 406.247 332.822 405.528 333.853C404.192 335.773 402.82 337.664 401.412 339.527C401.412 339.531 401.407 339.531 401.402 339.536C400.58 340.245 399.673 340.862 398.698 341.375C398.657 341.403 398.612 341.422 398.571 341.446C397.853 341.816 397.089 342.101 396.296 342.297C396.01 342.363 395.719 342.43 395.434 342.496C394.403 342.724 393.383 342.919 392.368 343.09C390.562 343.39 388.777 343.603 387.002 343.736C386.859 343.751 386.716 343.76 386.574 343.77C379.274 344.269 372.169 343.466 364.752 342.149C361.09 341.503 357.351 340.729 353.479 339.926C352.214 339.66 350.944 339.398 349.659 339.137C349.562 339.118 349.46 339.094 349.358 339.075C347.522 338.7 345.655 338.329 343.742 337.963C341.334 337.502 342.568 337.476 339.987 337.053C339.987 337.053 345.942 342.686 346.932 345.128C348.034 348.131 348.906 350.507 347.065 355.453L352.783 365.911L332.902 369.051C321.945 349.051 313.188 335.881 317.1 328.124C317.116 327.763 317.146 327.397 317.197 327.036C317.405 325.394 317.962 323.808 318.835 322.369C319.708 320.93 320.88 319.667 322.283 318.654C323.627 317.676 325.166 316.956 326.812 316.537C328.457 316.118 330.176 316.007 331.867 316.212L335.769 316.683L366.033 315.313L367.221 310.799L367.44 310.723L374.413 308.343L398.53 300.108L398.591 300.089L400.177 299.547L400.366 299.833C400.422 299.918 400.478 300.004 400.529 300.089C402.097 302.708 403.374 305.468 404.34 308.328C405.964 313 407.3 317.755 408.344 322.568C408.39 322.778 408.431 322.968 408.466 323.139L408.482 323.191C408.497 323.272 408.507 323.324 408.512 323.338C409.068 325.495 408.681 328.128 407.66 330.736Z" fill="#2F2E41"/>
<path d="M402.572 242.939L402.398 233.934L387.083 232.274L385.476 239.878L369.38 253.968C357.936 267.001 366.252 275.989 366.75 277.325L368.165 293.759L369.055 299.469L365.579 315.096L409.457 323.864C410.861 313.06 409.297 303.022 400.137 294.942L404.766 281.526C407.112 278.023 408.583 274.073 409.07 269.969L409.237 268.567C413.327 256.695 410.904 252.698 402.572 242.939Z" fill="#E6E6E6"/>
<path d="M424.059 214.795C424.069 215.028 424.075 215.261 424.075 215.489C424.07 218.005 423.427 220.485 422.196 222.726C420.966 224.966 419.185 226.904 416.997 228.38C414.809 229.856 412.277 230.83 409.608 231.22C406.94 231.611 404.209 231.407 401.641 230.627L398.494 229.672C398.468 229.662 398.438 229.658 398.412 229.648L393.225 228.071C393.208 227.866 393.211 227.661 393.235 227.458C385.497 224.379 396.193 214.263 398.851 206.665C399.264 205.482 385.058 206.366 385.732 205.354C385.584 205.282 385.436 205.211 385.298 205.14C387.698 201.612 391.245 198.892 395.422 197.375C399.599 195.859 404.188 195.626 408.517 196.711C408.629 196.734 408.747 196.768 408.859 196.796C418.938 197.029 424.233 203.572 424.233 212.068C424.232 212.979 424.174 213.89 424.059 214.795V214.795Z" fill="#2F2E41"/>
<path d="M415.327 218.14C413.975 221.998 411.033 225.198 407.148 227.036C403.264 228.874 398.755 229.2 394.613 227.942C394.143 227.8 393.684 227.638 393.235 227.458C389.466 225.953 386.437 223.188 384.744 219.708C383.052 216.228 382.818 212.284 384.09 208.651C384.493 207.495 385.044 206.387 385.732 205.354C387.844 202.168 391.136 199.814 394.986 198.737C398.835 197.661 402.975 197.936 406.621 199.512C410.268 201.087 413.168 203.853 414.772 207.286C416.376 210.719 416.574 214.58 415.327 218.14V218.14Z" fill="#A0616A"/>
<path d="M398.491 229.67C398.464 229.664 398.437 229.656 398.41 229.645L393.225 228.071C393.211 227.864 383.688 233.736 383.715 233.529C383.864 231.941 394.592 224.2 396.195 222.4C397.231 221.25 397.952 219.882 398.295 218.415C398.638 216.948 398.593 215.425 398.163 213.978C397.734 212.531 396.933 211.203 395.83 210.108C394.726 209.014 393.354 208.185 391.831 207.695C391.784 207.684 391.739 207.669 391.696 207.651C390.693 207.324 389.729 206.992 388.827 206.659C388.383 204.934 388.154 205.505 387.083 204.043C387.278 205.373 385.466 206.377 385.439 207.72C385.069 207.563 384.719 207.4 384.382 207.237C384.234 207.161 384.093 207.092 383.951 207.023C382.912 206.574 382.005 205.898 381.304 205.053C383.897 197.632 393.817 191.691 401.784 194.119L404.795 195.029C408.592 196.177 411.747 198.678 413.57 201.986C415.766 203.554 417.519 205.598 418.675 207.939C425.261 220.267 412.54 233.874 398.491 229.67Z" fill="#2F2E41"/>
<path d="M420.275 209.041C424.219 209.041 427.416 206.063 427.416 202.389C427.416 198.715 424.219 195.737 420.275 195.737C416.331 195.737 413.134 198.715 413.134 202.389C413.134 206.063 416.331 209.041 420.275 209.041Z" fill="#2F2E41"/>
<path d="M511 215.957C509.486 222.366 506.457 228.379 502.132 233.559C497.807 238.739 492.296 242.955 486.001 245.9C485.2 246.27 484.385 246.615 483.563 246.935C483.637 243.833 482.68 240.785 480.822 238.209C481.124 240.297 481.16 242.411 480.93 244.507C480.804 245.709 480.591 246.902 480.29 248.077C475.007 249.7 469.458 250.445 463.898 250.279C463.581 247.977 462.688 245.777 461.292 243.855C461.594 245.943 461.63 248.057 461.399 250.153C455.811 249.731 450.351 248.368 445.283 246.132C442.65 244.965 440.064 243.503 438.367 241.295C436.111 238.353 435.734 234.47 436.286 230.894C436.838 227.312 438.219 223.893 439.182 220.392C440.145 216.892 440.691 213.146 439.559 209.69C438.434 206.227 435.276 203.146 431.403 202.877C429.639 202.751 427.868 203.203 426.103 203.052C424.339 202.895 422.426 201.798 422.386 200.148L424.076 197.588C424.79 193.109 427.241 188.667 431.444 186.39C435.64 184.107 441.674 184.596 444.671 188.159C447.196 191.158 447.102 195.323 447.93 199.056C449.856 207.726 457.298 214.702 465.945 218.378C474.599 222.048 484.338 222.82 493.847 222.669C497.107 222.613 500.42 222.45 503.518 221.49C506.623 220.524 509.519 218.667 511 215.957Z" fill="#2F2E41"/>
<path d="M349.044 255.936L346.247 224.869C346.153 223.806 346.515 222.751 347.254 221.937C347.993 221.122 349.049 220.614 350.19 220.523L357.459 219.956C358.6 219.868 359.732 220.205 360.606 220.894C361.481 221.582 362.027 222.566 362.123 223.629L364.92 254.696C365.014 255.759 364.652 256.813 363.913 257.628C363.174 258.442 362.118 258.951 360.977 259.041L353.708 259.609C352.567 259.697 351.435 259.359 350.561 258.671C349.686 257.982 349.141 256.999 349.044 255.936V255.936Z" fill="#3F3D56"/>
<path d="M351.183 222.042C350.568 222.09 349.999 222.364 349.601 222.803C349.203 223.242 349.008 223.81 349.058 224.383L351.855 255.45C351.907 256.023 352.201 256.553 352.673 256.924C353.144 257.295 353.754 257.477 354.369 257.43L361.637 256.862C362.252 256.813 362.821 256.539 363.22 256.1C363.618 255.661 363.813 255.093 363.762 254.52L360.966 223.453C360.913 222.88 360.619 222.35 360.148 221.979C359.677 221.608 359.067 221.427 358.452 221.474L351.183 222.042Z" fill="#2B4F70"/>
<path d="M363.439 266.596L370.515 264.08L366.405 249.43L365.685 242.167C365.592 241.224 365.234 240.319 364.648 239.545C364.062 238.771 363.267 238.153 362.345 237.754C361.422 237.355 360.403 237.189 359.39 237.271C358.376 237.354 357.404 237.683 356.57 238.226V238.226C355.334 239.03 354.482 240.249 354.193 241.628C353.904 243.006 354.201 244.435 355.022 245.613L359.835 252.521L363.439 266.596Z" fill="#A0616A"/>
<path d="M370.795 261.463L361.359 264.818L366.056 285.36C366.393 286.835 367.134 288.204 368.206 289.334C369.279 290.464 370.646 291.316 372.177 291.809V291.809C374.063 292.417 376.109 292.449 378.017 291.9C379.924 291.352 381.595 290.252 382.786 288.76L403.957 261.554C405.452 259.682 406.101 257.341 405.767 255.029C405.433 252.718 404.142 250.62 402.169 249.183V249.183C401.109 248.41 399.885 247.854 398.578 247.551C397.272 247.248 395.911 247.205 394.585 247.424C393.259 247.643 391.998 248.12 390.883 248.823C389.768 249.526 388.824 250.441 388.114 251.506L374.734 272.398L370.795 261.463Z" fill="#E6E6E6"/>
<path opacity="0.2" d="M363.121 272.522L367.89 290.564L368.88 291.685C369.663 292.574 370.665 293.274 371.799 293.727C372.934 294.18 374.169 294.373 375.4 294.289C376.632 294.205 377.823 293.847 378.875 293.244C379.927 292.642 380.808 291.813 381.444 290.828L396.559 267.418L382.931 284.983C382.167 285.968 381.147 286.756 379.967 287.274C378.786 287.791 377.484 288.022 376.182 287.943C374.88 287.864 373.621 287.479 372.523 286.823C371.424 286.167 370.522 285.263 369.901 284.194L363.121 272.522Z" fill="black"/>
<path d="M185.403 102.718L190.781 86.4042C184.31 79.7709 176.2 74.709 167.153 71.6582C175.992 85.2987 167.427 103.093 170.996 118.675C172.149 123.527 174.46 128.075 177.756 131.982C181.053 135.889 185.251 139.055 190.04 141.245L198.2 150.664C202.478 143.702 205.085 135.958 205.841 127.967C206.597 119.976 205.484 111.927 202.579 104.375C200.904 100.153 198.665 96.1445 195.915 92.444C191.066 97.7544 185.403 102.718 185.403 102.718Z" fill="#F2F2F2"/>
<path d="M155.834 104.802L152.837 87.9668C143.87 84.7176 134.187 83.5565 124.629 84.5844C139.071 93.1212 139.924 112.606 150.579 125.07C153.934 128.933 158.18 132.044 163.001 134.172C167.822 136.299 173.095 137.389 178.43 137.36L190.243 142.4C190.739 134.391 189.365 126.377 186.215 118.91C183.066 111.444 178.216 104.702 172.001 99.1495C168.48 96.0667 164.558 93.4091 160.324 91.2394C158.527 98.0071 155.834 104.802 155.834 104.802Z" fill="#F2F2F2"/>
<path d="M258.755 55.3586L264.278 48.9276C265.22 47.8311 265.667 46.4366 265.526 45.0386C265.385 43.6405 264.666 42.3482 263.522 41.4343C262.749 40.8176 261.817 40.4006 260.817 40.2248C259.818 40.0491 258.786 40.1207 257.825 40.4327C256.865 40.7447 256.009 41.2861 255.343 42.0027C254.678 42.7193 254.226 43.5861 254.032 44.5164L252.545 51.6773L246.899 65.8766L253.674 69.032L258.755 55.3586Z" fill="#FFB8B8"/>
<path d="M241.818 73.7652L230.722 51.7428C230.128 50.6171 229.287 49.6204 228.252 48.8178C227.217 48.0152 226.012 47.4245 224.716 47.0842C223.42 46.744 222.061 46.6618 220.729 46.843C219.396 47.0241 218.12 47.4646 216.982 48.1358V48.1358C214.867 49.3837 213.359 51.3526 212.781 53.622C212.204 55.8913 212.601 58.2812 213.889 60.2812L232.067 89.305C233.094 90.8997 234.64 92.1482 236.48 92.8695C238.32 93.5908 240.359 93.7474 242.301 93.3167V93.3167C243.876 92.9673 245.328 92.2448 246.515 91.2192C247.702 90.1936 248.584 88.8997 249.077 87.4629L255.932 67.4544L246.899 63.2472L241.818 73.7652Z" fill="#2F2E41"/>
<path d="M262.753 66.6774L255.485 66.1097C254.344 66.0194 253.288 65.5112 252.549 64.6966C251.81 63.882 251.447 62.8275 251.542 61.7645L254.338 30.6974C254.435 29.6345 254.981 28.651 255.855 27.9624C256.73 27.2738 257.862 26.9365 259.003 27.0245L266.272 27.5922C267.413 27.6825 268.469 28.1907 269.208 29.0053C269.947 29.8199 270.309 30.8744 270.215 31.9374L267.418 63.0046C267.321 64.0674 266.776 65.051 265.901 65.7395C265.027 66.4281 263.895 66.7654 262.753 66.6774Z" fill="#3F3D56"/>
<path d="M258.01 28.5427C257.395 28.4953 256.785 28.6771 256.314 29.0481C255.842 29.4192 255.548 29.9492 255.496 30.5219L252.7 61.5891C252.649 62.1619 252.844 62.7301 253.242 63.1691C253.641 63.6081 254.21 63.882 254.824 63.9306L262.093 64.4984C262.708 64.5458 263.318 64.364 263.789 63.9929C264.261 63.6219 264.555 63.0918 264.607 62.5191L267.403 31.452C267.454 30.8792 267.259 30.3109 266.861 29.872C266.462 29.433 265.893 29.1591 265.279 29.1104L258.01 28.5427Z" fill="#F6F6F6"/>
<path d="M243.139 94.6403H212.898V122.81H243.139V94.6403Z" fill="#FFB8B8"/>
<path d="M249.02 92.2311C249.915 92.2311 250.64 91.5554 250.64 90.722C250.64 89.8885 249.915 89.2129 249.02 89.2129C248.125 89.2129 247.4 89.8885 247.4 90.722C247.4 91.5554 248.125 92.2311 249.02 92.2311Z" fill="#2F2E41"/>
<path d="M276.013 213.629L284.078 213.628L287.916 184.649L276.011 184.65L276.013 213.629Z" fill="#FFB6B6"/>
<path d="M274.013 209.923L286.763 209.214V214.302L298.885 222.101C299.483 222.486 299.934 223.039 300.172 223.68C300.409 224.321 300.42 225.015 300.204 225.662C299.987 226.309 299.554 226.875 298.968 227.277C298.382 227.678 297.673 227.895 296.946 227.895H281.766L279.15 222.862L278.128 227.895H272.405L274.013 209.923Z" fill="#2F2E41"/>
<path d="M216.155 234.316L223.071 238.183L242.371 215.175L232.164 209.469L216.155 234.316Z" fill="#FFB6B6"/>
<path d="M216.487 230.18L227.811 235.684L225 240.047L231.084 252.545C231.385 253.162 231.466 253.853 231.315 254.516C231.165 255.179 230.791 255.78 230.248 256.231C229.704 256.682 229.021 256.959 228.296 257.022C227.572 257.086 226.845 256.932 226.221 256.583L213.206 249.306L213.744 243.736L210.087 247.562L205.18 244.818L216.487 230.18Z" fill="#2F2E41"/>
<path d="M53.9759 231.794C53.8963 231.794 53.8167 231.793 53.7363 231.79C52.7988 231.758 51.8833 231.516 51.0679 231.084C50.2524 230.652 49.561 230.043 49.0525 229.308C45.2442 224.006 40.5706 219.29 35.2005 215.331C31.9496 212.911 28.5525 210.66 25.2675 208.483C16.7925 202.87 8.81123 197.583 4.3808 190.278C-5.27886 174.349 6.09681 152.162 22.348 142.212C40.576 131.053 64.552 129.302 87.7461 129.073C90.1566 129.049 92.5685 129.037 94.9819 129.037C136.773 129.052 178.476 132.604 219.576 139.65C233.243 141.998 247.549 144.876 259.045 151.859C270.473 158.8 277.419 169.731 276.741 179.708C275.752 194.272 259.178 205.155 244.085 208C229.7 210.71 214.756 208.879 198.935 206.94C195.442 206.512 191.831 206.069 188.259 205.684C149.447 201.506 76.5367 214.386 73.4521 214.936L70.3918 215.482L58.5177 229.716C57.9836 230.365 57.2958 230.89 56.508 231.25C55.7202 231.611 54.8536 231.797 53.9759 231.794V231.794Z" fill="#2B4F70"/>
<path d="M226.81 160.744H62.7651C61.8184 160.744 60.9106 160.394 60.2412 159.77C59.5718 159.147 59.1958 158.301 59.1958 157.419C59.1958 156.537 59.5718 155.692 60.2412 155.068C60.9106 154.445 61.8184 154.094 62.7651 154.094H226.81C227.757 154.094 228.664 154.445 229.334 155.068C230.003 155.692 230.379 156.537 230.379 157.419C230.379 158.301 230.003 159.147 229.334 159.77C228.664 160.394 227.757 160.744 226.81 160.744V160.744Z" fill="white"/>
<path d="M226.81 181.152H62.7649C62.2959 181.153 61.8313 181.068 61.3977 180.901C60.9641 180.735 60.57 180.49 60.2379 180.182C59.9058 179.873 59.6422 179.507 59.4622 179.104C59.2821 178.7 59.1892 178.268 59.1887 177.831C59.1882 177.394 59.2802 176.961 59.4593 176.557C59.6384 176.154 59.9012 175.787 60.2326 175.478C60.5641 175.169 60.9576 174.923 61.3909 174.756C61.8241 174.589 62.2884 174.503 62.7574 174.502H226.81C227.756 174.504 228.662 174.854 229.33 175.478C229.999 176.101 230.374 176.946 230.374 177.827C230.374 178.708 229.999 179.553 229.33 180.177C228.662 180.8 227.756 181.151 226.81 181.152Z" fill="white"/>
<path d="M81.882 201.56H62.765C61.8193 201.559 60.9127 201.208 60.2444 200.584C59.5761 199.961 59.2007 199.116 59.2007 198.235C59.2007 197.354 59.5761 196.509 60.2444 195.886C60.9127 195.262 61.8193 194.911 62.765 194.91H81.882C82.8278 194.911 83.7344 195.262 84.4027 195.886C85.071 196.509 85.4464 197.354 85.4464 198.235C85.4464 199.116 85.071 199.961 84.4027 200.584C83.7344 201.208 82.8278 201.559 81.882 201.56V201.56Z" fill="white"/>
<path d="M244.209 114.746L211.877 111.151L212.807 116.861C212.807 116.861 190.914 133.295 205.901 151.427L213.137 158L212.471 161.089H217.118L217.616 164.816L237.605 180.229L238.752 183.382H242.044L240.435 186.968L225.595 219.119L237.89 224.458L260.534 184.022L254.733 171.835L233.868 147.235L266.185 159.126L266.736 161.736L269.707 161.212L269.133 165.053L275.44 195.279L288.797 193.628L287.424 156.018C287.321 153.962 286.635 151.969 285.437 150.239C284.239 148.51 282.572 147.107 280.603 146.172C273.756 142.896 248.462 133.793 248.462 133.793L244.209 114.746Z" fill="#2F2E41"/>
<path d="M231.259 48.8645L225.172 41.5762L216.489 41.2255L215.622 48.0802L211.32 49.9282C207.024 65.1309 206.361 81.0263 209.377 96.4938V96.4938C209.953 96.9995 210.375 97.6394 210.597 98.3473C210.82 99.0553 210.835 99.8058 210.643 100.521L210.364 101.557L210.39 101.595C211.305 102.941 211.616 104.568 211.254 106.125V106.125L203.389 119.143C220.091 125.485 232.336 113.659 243.679 98.1616L250.699 75.5251L231.259 48.8645Z" fill="#3F3D56"/>
<path d="M249.558 90.7721L251.197 75.5001L229.434 45.4905L228.539 46.0532L250.083 75.7623L248.483 90.6717L249.558 90.7721Z" fill="#2F2E41"/>
<path d="M225.597 40.9778C234.463 40.9778 241.651 34.2824 241.651 26.0233C241.651 17.7642 234.463 11.0688 225.597 11.0688C216.731 11.0688 209.543 17.7642 209.543 26.0233C209.543 34.2824 216.731 40.9778 225.597 40.9778Z" fill="#FFB8B8"/>
<path d="M227.661 7.78483L225.647 7.84437L224.962 7.86459L217.296 8.09118C210.501 8.29203 205.189 14.2277 205.431 21.3489C200.467 26.2964 202.21 32.2593 206.499 38.6074C213.871 39.2412 221.113 40.8182 228.022 43.2938L228.859 39.4167L230.94 44.4288C232.663 45.1446 234.374 45.9325 236.074 46.7924C233.836 38.3273 232.745 29.8481 233.857 23.2035L237.368 23.0998L237.246 19.5209L238.559 23.0645L244.924 22.8764C244.854 20.8296 244.353 18.8156 243.447 16.9495C242.542 15.0833 241.251 13.4015 239.648 12.0002C238.045 10.5988 236.161 9.50522 234.105 8.78196C232.048 8.05869 229.858 7.71986 227.661 7.78483V7.78483Z" fill="#2F2E41"/>
<path d="M213.8 14.0849C217.975 14.0849 221.36 10.9319 221.36 7.04244C221.36 3.15301 217.975 0 213.8 0C209.624 0 206.24 3.15301 206.24 7.04244C206.24 10.9319 209.624 14.0849 213.8 14.0849Z" fill="#2F2E41"/>
<path d="M263.469 62.8868L268.992 56.4558C269.934 55.3593 270.381 53.9648 270.24 52.5668C270.099 51.1687 269.381 49.8764 268.236 48.9625V48.9625C267.464 48.3458 266.531 47.9288 265.531 47.753C264.532 47.5772 263.5 47.6489 262.54 47.9609C261.579 48.2729 260.723 48.8142 260.058 49.5309C259.392 50.2475 258.94 51.1143 258.747 52.0446L257.259 59.2055L251.613 73.4048L258.388 76.5602L263.469 62.8868Z" fill="#FFB8B8"/>
<path d="M246.532 81.2933L235.437 59.2709C234.843 58.1451 234.001 57.1485 232.966 56.3459C231.931 55.5432 230.726 54.9526 229.43 54.6123C228.134 54.2721 226.776 54.1899 225.443 54.371C224.111 54.5522 222.834 54.9927 221.696 55.6639V55.6639C219.581 56.9118 218.073 58.8807 217.496 61.1501C216.918 63.4194 217.315 65.8093 218.604 67.8093L236.781 96.8331C237.808 98.4278 239.354 99.6762 241.194 100.398C243.034 101.119 245.073 101.276 247.015 100.845V100.845C248.59 100.495 250.042 99.7729 251.229 98.7473C252.416 97.7217 253.299 96.4277 253.791 94.9909L260.646 74.9824L251.613 70.7753L246.532 81.2933Z" fill="#2F2E41"/>
</svg>
