<svg width="279" height="49" viewBox="0 0 279 49" fill="none" xmlns="http://www.w3.org/2000/svg">
<mask id="mask0_75_1100" style="mask-type:alpha" maskUnits="userSpaceOnUse" x="0" y="0" width="279" height="49">
<rect width="279" height="49" fill="#C4C4C4"/>
</mask>
<g mask="url(#mask0_75_1100)">
<path d="M74.4293 27.7416C72.9969 27.7416 71.6077 27.5517 70.2616 27.1721C68.9328 26.7752 67.8629 26.2661 67.0518 25.6448L68.4755 22.4867C69.2521 23.0562 70.1754 23.5135 71.2453 23.8587C72.3153 24.2038 73.3852 24.3764 74.4552 24.3764C75.646 24.3764 76.5261 24.2038 77.0956 23.8587C77.6651 23.4962 77.9498 23.0217 77.9498 22.4349C77.9498 22.0035 77.7773 21.6497 77.4321 21.3736C77.1042 21.0802 76.6728 20.8472 76.1378 20.6747C75.6201 20.5021 74.9125 20.3122 74.0151 20.1052C72.6345 19.7773 71.5042 19.4494 70.624 19.1215C69.7439 18.7936 68.9846 18.2672 68.3461 17.5424C67.7248 16.8176 67.4142 15.8512 67.4142 14.6432C67.4142 13.5905 67.6989 12.6413 68.2684 11.7957C68.8379 10.9328 69.6921 10.2512 70.8311 9.7507C71.9874 9.25023 73.3939 9 75.0506 9C76.2068 9 77.3372 9.13806 78.4417 9.41418C79.5461 9.6903 80.5126 10.0872 81.3409 10.6049L80.0466 13.7889C78.3726 12.8398 76.6987 12.3652 75.0247 12.3652C73.8512 12.3652 72.9797 12.555 72.4102 12.9347C71.858 13.3144 71.5818 13.8148 71.5818 14.4361C71.5818 15.0574 71.9011 15.5233 72.5396 15.8339C73.1954 16.1273 74.1877 16.4207 75.5165 16.7141C76.8971 17.042 78.0275 17.3699 78.9076 17.6977C79.7877 18.0256 80.5384 18.5434 81.1597 19.2509C81.7982 19.9585 82.1175 20.9163 82.1175 22.1243C82.1175 23.1597 81.8241 24.1089 81.2374 24.9718C80.6679 25.8174 79.805 26.4904 78.6488 26.9909C77.4925 27.4913 76.086 27.7416 74.4293 27.7416Z" fill="#12204B"/>
<path d="M88.4837 12.7276H82.6852V9.31063H98.4757V12.7276H92.6772V27.4309H88.4837V12.7276Z" fill="#12204B"/>
<path d="M108.479 27.7416C105.891 27.7416 103.872 27.0254 102.422 25.593C100.99 24.1607 100.273 22.1157 100.273 19.458V9.31063H104.467V19.3027C104.467 22.5471 105.813 24.1693 108.505 24.1693C109.817 24.1693 110.818 23.781 111.508 23.0044C112.198 22.2106 112.543 20.9767 112.543 19.3027V9.31063H116.685V19.458C116.685 22.1157 115.96 24.1607 114.511 25.593C113.078 27.0254 111.068 27.7416 108.479 27.7416Z" fill="#12204B"/>
<path d="M120.829 9.31063H129.061C131.028 9.31063 132.763 9.6903 134.264 10.4496C135.783 11.1917 136.956 12.2444 137.785 13.6077C138.63 14.9711 139.053 16.5588 139.053 18.3708C139.053 20.1828 138.63 21.7705 137.785 23.1338C136.956 24.4972 135.783 25.5585 134.264 26.3178C132.763 27.0599 131.028 27.4309 129.061 27.4309H120.829V9.31063ZM128.854 23.9881C130.666 23.9881 132.107 23.4876 133.177 22.4867C134.264 21.4685 134.808 20.0965 134.808 18.3708C134.808 16.645 134.264 15.2817 133.177 14.2808C132.107 13.2626 130.666 12.7535 128.854 12.7535H125.023V23.9881H128.854Z" fill="#12204B"/>
<path d="M156.246 24.0657V27.4309H142.216V9.31063H155.909V12.6758H146.383V16.6105H154.796V19.8722H146.383V24.0657H156.246Z" fill="#12204B"/>
<path d="M176.202 9.31063V27.4309H172.759L163.724 16.4293V27.4309H159.583V9.31063H163.051L172.06 20.3122V9.31063H176.202Z" fill="#12204B"/>
<path d="M184.242 12.7276H178.444V9.31063H194.234V12.7276H188.436V27.4309H184.242V12.7276Z" fill="#12204B"/>
<path d="M220.311 27.4309L220.285 16.5588L214.953 25.5154H213.063L207.756 16.7917V27.4309H203.822V9.31063H207.29L214.073 20.5711L220.751 9.31063H224.194L224.246 27.4309H220.311Z" fill="#12204B"/>
<path d="M240.478 23.548H232.065L230.461 27.4309H226.163L234.24 9.31063H238.382L246.484 27.4309H242.083L240.478 23.548ZM239.158 20.364L236.285 13.4265L233.412 20.364H239.158Z" fill="#12204B"/>
<path d="M254.318 27.7416C252.885 27.7416 251.496 27.5517 250.15 27.1721C248.821 26.7752 247.751 26.2661 246.94 25.6448L248.364 22.4867C249.141 23.0562 250.064 23.5135 251.134 23.8587C252.204 24.2038 253.274 24.3764 254.344 24.3764C255.534 24.3764 256.415 24.2038 256.984 23.8587C257.554 23.4962 257.838 23.0217 257.838 22.4349C257.838 22.0035 257.666 21.6497 257.321 21.3736C256.993 21.0802 256.561 20.8472 256.026 20.6747C255.509 20.5021 254.801 20.3122 253.904 20.1052C252.523 19.7773 251.393 19.4494 250.513 19.1215C249.632 18.7936 248.873 18.2672 248.235 17.5424C247.613 16.8176 247.303 15.8512 247.303 14.6432C247.303 13.5905 247.587 12.6413 248.157 11.7957C248.726 10.9328 249.581 10.2512 250.72 9.7507C251.876 9.25023 253.282 9 254.939 9C256.095 9 257.226 9.13806 258.33 9.41418C259.435 9.6903 260.401 10.0872 261.229 10.6049L259.935 13.7889C258.261 12.8398 256.587 12.3652 254.913 12.3652C253.74 12.3652 252.868 12.555 252.299 12.9347C251.746 13.3144 251.47 13.8148 251.47 14.4361C251.47 15.0574 251.79 15.5233 252.428 15.8339C253.084 16.1273 254.076 16.4207 255.405 16.7141C256.786 17.042 257.916 17.3699 258.796 17.6977C259.676 18.0256 260.427 18.5434 261.048 19.2509C261.687 19.9585 262.006 20.9163 262.006 22.1243C262.006 23.1597 261.713 24.1089 261.126 24.9718C260.556 25.8174 259.694 26.4904 258.537 26.9909C257.381 27.4913 255.975 27.7416 254.318 27.7416Z" fill="#12204B"/>
<path d="M270.825 27.7416C269.393 27.7416 268.004 27.5517 266.658 27.1721C265.329 26.7752 264.259 26.2661 263.448 25.6448L264.872 22.4867C265.648 23.0562 266.571 23.5135 267.641 23.8587C268.711 24.2038 269.781 24.3764 270.851 24.3764C272.042 24.3764 272.922 24.2038 273.492 23.8587C274.061 23.4962 274.346 23.0217 274.346 22.4349C274.346 22.0035 274.173 21.6497 273.828 21.3736C273.5 21.0802 273.069 20.8472 272.534 20.6747C272.016 20.5021 271.309 20.3122 270.411 20.1052C269.031 19.7773 267.9 19.4494 267.02 19.1215C266.14 18.7936 265.381 18.2672 264.742 17.5424C264.121 16.8176 263.81 15.8512 263.81 14.6432C263.81 13.5905 264.095 12.6413 264.664 11.7957C265.234 10.9328 266.088 10.2512 267.227 9.7507C268.383 9.25023 269.79 9 271.447 9C272.603 9 273.733 9.13806 274.838 9.41418C275.942 9.6903 276.909 10.0872 277.737 10.6049L276.443 13.7889C274.769 12.8398 273.095 12.3652 271.421 12.3652C270.247 12.3652 269.376 12.555 268.806 12.9347C268.254 13.3144 267.978 13.8148 267.978 14.4361C267.978 15.0574 268.297 15.5233 268.936 15.8339C269.591 16.1273 270.584 16.4207 271.913 16.7141C273.293 17.042 274.424 17.3699 275.304 17.6977C276.184 18.0256 276.934 18.5434 277.556 19.2509C278.194 19.9585 278.514 20.9163 278.514 22.1243C278.514 23.1597 278.22 24.1089 277.633 24.9718C277.064 25.8174 276.201 26.4904 275.045 26.9909C273.889 27.4913 272.482 27.7416 270.825 27.7416Z" fill="#12204B"/>
<path d="M71.7372 46.6537C70.8398 46.6537 70.0287 46.4552 69.3039 46.0583C68.5877 45.6614 68.0225 45.1135 67.6083 44.4146C67.2028 43.707 67 42.9175 67 42.046C67 41.1745 67.2028 40.3893 67.6083 39.6903C68.0225 38.9828 68.592 38.4305 69.3168 38.0336C70.0416 37.6367 70.8527 37.4382 71.7501 37.4382C72.4231 37.4382 73.0444 37.5504 73.6139 37.7748C74.1834 37.9991 74.6666 38.327 75.0635 38.7584L74.4552 39.3668C73.7477 38.6506 72.8546 38.2925 71.776 38.2925C71.0598 38.2925 70.4083 38.4564 69.8216 38.7843C69.2348 39.1122 68.7732 39.5609 68.4367 40.1304C68.1088 40.6999 67.9448 41.3384 67.9448 42.046C67.9448 42.7535 68.1088 43.392 68.4367 43.9615C68.7732 44.531 69.2348 44.9797 69.8216 45.3076C70.4083 45.6355 71.0598 45.7995 71.776 45.7995C72.8632 45.7995 73.7563 45.4371 74.4552 44.7122L75.0635 45.3206C74.6666 45.752 74.1791 46.0842 73.601 46.3172C73.0315 46.5415 72.4102 46.6537 71.7372 46.6537Z" fill="#12204B"/>
<path d="M83.5296 46.6537C82.6322 46.6537 81.8168 46.4552 81.0834 46.0583C80.3586 45.6528 79.7891 45.1005 79.3749 44.4016C78.9693 43.7027 78.7666 42.9175 78.7666 42.046C78.7666 41.1745 78.9693 40.3893 79.3749 39.6903C79.7891 38.9914 80.3586 38.4435 81.0834 38.0466C81.8168 37.641 82.6322 37.4382 83.5296 37.4382C84.427 37.4382 85.2338 37.6367 85.95 38.0336C86.6748 38.4305 87.2443 38.9828 87.6585 39.6903C88.0726 40.3893 88.2797 41.1745 88.2797 42.046C88.2797 42.9175 88.0726 43.707 87.6585 44.4146C87.2443 45.1135 86.6748 45.6614 85.95 46.0583C85.2338 46.4552 84.427 46.6537 83.5296 46.6537ZM83.5296 45.7995C84.2458 45.7995 84.893 45.6398 85.4711 45.3206C86.0492 44.9927 86.5022 44.544 86.8301 43.9745C87.158 43.3964 87.3219 42.7535 87.3219 42.046C87.3219 41.3384 87.158 40.6999 86.8301 40.1304C86.5022 39.5523 86.0492 39.1036 85.4711 38.7843C84.893 38.4564 84.2458 38.2925 83.5296 38.2925C82.8134 38.2925 82.162 38.4564 81.5752 38.7843C80.9971 39.1036 80.5398 39.5523 80.2033 40.1304C79.8754 40.6999 79.7114 41.3384 79.7114 42.046C79.7114 42.7535 79.8754 43.3964 80.2033 43.9745C80.5398 44.544 80.9971 44.9927 81.5752 45.3206C82.162 45.6398 82.8134 45.7995 83.5296 45.7995Z" fill="#12204B"/>
<path d="M100.652 37.5159V46.576H99.8621L94.0377 39.2244V46.576H93.0799V37.5159H93.8694L99.7067 44.8676V37.5159H100.652Z" fill="#12204B"/>
<path d="M113.834 37.5159V46.576H113.044L107.22 39.2244V46.576H106.262V37.5159H107.052L112.889 44.8676V37.5159H113.834Z" fill="#12204B"/>
<path d="M125.851 45.7477V46.576H119.444V37.5159H125.657V38.3442H120.402V41.5671H125.088V42.3825H120.402V45.7477H125.851Z" fill="#12204B"/>
<path d="M134.64 46.6537C133.743 46.6537 132.932 46.4552 132.207 46.0583C131.491 45.6614 130.925 45.1135 130.511 44.4146C130.106 43.707 129.903 42.9175 129.903 42.046C129.903 41.1745 130.106 40.3893 130.511 39.6903C130.925 38.9828 131.495 38.4305 132.22 38.0336C132.944 37.6367 133.756 37.4382 134.653 37.4382C135.326 37.4382 135.947 37.5504 136.517 37.7748C137.086 37.9991 137.569 38.327 137.966 38.7584L137.358 39.3668C136.65 38.6506 135.757 38.2925 134.679 38.2925C133.963 38.2925 133.311 38.4564 132.724 38.7843C132.138 39.1122 131.676 39.5609 131.34 40.1304C131.012 40.6999 130.848 41.3384 130.848 42.046C130.848 42.7535 131.012 43.392 131.34 43.9615C131.676 44.531 132.138 44.9797 132.724 45.3076C133.311 45.6355 133.963 45.7995 134.679 45.7995C135.766 45.7995 136.659 45.4371 137.358 44.7122L137.966 45.3206C137.569 45.752 137.082 46.0842 136.504 46.3172C135.934 46.5415 135.313 46.6537 134.64 46.6537Z" fill="#12204B"/>
<path d="M144.308 38.3442H141.124V37.5159H148.45V38.3442H145.266V46.576H144.308V38.3442Z" fill="#12204B"/>
<path d="M152.633 37.5159H153.591V46.576H152.633V37.5159Z" fill="#12204B"/>
<path d="M166.764 37.5159V46.576H165.974L160.15 39.2244V46.576H159.192V37.5159H159.982L165.819 44.8676V37.5159H166.764Z" fill="#12204B"/>
<path d="M178.755 42.046H179.674V45.5018C179.252 45.8728 178.751 46.1576 178.173 46.356C177.595 46.5545 176.986 46.6537 176.348 46.6537C175.442 46.6537 174.627 46.4552 173.902 46.0583C173.177 45.6614 172.607 45.1135 172.193 44.4146C171.779 43.707 171.572 42.9175 171.572 42.046C171.572 41.1745 171.779 40.3893 172.193 39.6903C172.607 38.9828 173.177 38.4305 173.902 38.0336C174.627 37.6367 175.446 37.4382 176.361 37.4382C177.051 37.4382 177.685 37.5504 178.264 37.7748C178.842 37.9905 179.329 38.314 179.726 38.7455L179.131 39.3538C178.415 38.6463 177.504 38.2925 176.4 38.2925C175.666 38.2925 175.002 38.4564 174.406 38.7843C173.82 39.1036 173.358 39.5523 173.022 40.1304C172.685 40.6999 172.517 41.3384 172.517 42.046C172.517 42.7535 172.685 43.392 173.022 43.9615C173.358 44.531 173.82 44.9797 174.406 45.3076C174.993 45.6355 175.653 45.7995 176.387 45.7995C177.319 45.7995 178.108 45.5665 178.755 45.1005V42.046Z" fill="#12204B"/>
<path d="M193.577 46.6537C192.904 46.6537 192.257 46.5458 191.636 46.3301C191.023 46.1144 190.549 45.8297 190.212 45.4759L190.587 44.7381C190.915 45.066 191.351 45.3335 191.895 45.5406C192.438 45.7391 192.999 45.8383 193.577 45.8383C194.388 45.8383 194.997 45.6916 195.402 45.3982C195.808 45.0962 196.011 44.7079 196.011 44.2333C196.011 43.8709 195.898 43.5819 195.674 43.3662C195.458 43.1504 195.191 42.9865 194.872 42.8743C194.552 42.7535 194.108 42.6241 193.538 42.486C192.857 42.3135 192.313 42.1495 191.908 41.9942C191.502 41.8302 191.153 41.5843 190.859 41.2564C190.574 40.9285 190.432 40.4842 190.432 39.9233C190.432 39.466 190.553 39.0518 190.794 38.6808C191.036 38.3011 191.407 37.9991 191.908 37.7748C192.408 37.5504 193.029 37.4382 193.771 37.4382C194.289 37.4382 194.794 37.5116 195.286 37.6583C195.786 37.7963 196.218 37.9905 196.58 38.2407L196.256 39.0043C195.877 38.7541 195.471 38.5686 195.04 38.4478C194.608 38.3184 194.186 38.2536 193.771 38.2536C192.978 38.2536 192.378 38.409 191.972 38.7196C191.575 39.0216 191.377 39.4142 191.377 39.8974C191.377 40.2598 191.485 40.5532 191.7 40.7775C191.925 40.9933 192.201 41.1615 192.529 41.2823C192.865 41.3945 193.314 41.5196 193.875 41.6577C194.539 41.8216 195.074 41.9856 195.48 42.1495C195.894 42.3048 196.243 42.5464 196.528 42.8743C196.813 43.1936 196.955 43.6293 196.955 44.1816C196.955 44.6389 196.83 45.0574 196.58 45.4371C196.338 45.8081 195.963 46.1058 195.454 46.3301C194.945 46.5458 194.319 46.6537 193.577 46.6537Z" fill="#12204B"/>
<path d="M203.329 38.3442H200.145V37.5159H207.471V38.3442H204.287V46.576H203.329V38.3442Z" fill="#12204B"/>
<path d="M215.128 46.6537C213.954 46.6537 213.039 46.3172 212.384 45.6441C211.728 44.9711 211.4 43.9917 211.4 42.7061V37.5159H212.358V42.6672C212.358 43.7199 212.595 44.5052 213.07 45.0229C213.544 45.5406 214.23 45.7995 215.128 45.7995C216.034 45.7995 216.724 45.5406 217.199 45.0229C217.673 44.5052 217.91 43.7199 217.91 42.6672V37.5159H218.842V42.7061C218.842 43.9917 218.514 44.9711 217.859 45.6441C217.211 46.3172 216.301 46.6537 215.128 46.6537Z" fill="#12204B"/>
<path d="M224.382 37.5159H228.071C229.028 37.5159 229.874 37.71 230.607 38.0983C231.341 38.478 231.91 39.013 232.316 39.7033C232.722 40.3849 232.924 41.1658 232.924 42.046C232.924 42.9261 232.722 43.7113 232.316 44.4016C231.91 45.0833 231.341 45.6183 230.607 46.0066C229.874 46.3862 229.028 46.576 228.071 46.576H224.382V37.5159ZM228.019 45.7477C228.813 45.7477 229.507 45.5924 230.103 45.2817C230.698 44.9625 231.16 44.5267 231.488 43.9745C231.815 43.4136 231.979 42.7708 231.979 42.046C231.979 41.3212 231.815 40.6826 231.488 40.1304C231.16 39.5695 230.698 39.1338 230.103 38.8231C229.507 38.5039 228.813 38.3442 228.019 38.3442H225.34V45.7477H228.019Z" fill="#12204B"/>
<path d="M244.135 45.7477V46.576H237.728V37.5159H243.941V38.3442H238.686V41.5671H243.372V42.3825H238.686V45.7477H244.135Z" fill="#12204B"/>
<path d="M256.612 37.5159V46.576H255.822L249.998 39.2244V46.576H249.04V37.5159H249.829L255.667 44.8676V37.5159H256.612Z" fill="#12204B"/>
<path d="M263.982 38.3442H260.798V37.5159H268.124V38.3442H264.94V46.576H263.982V38.3442Z" fill="#12204B"/>
<path d="M274.667 46.6537C273.994 46.6537 273.346 46.5458 272.725 46.3301C272.113 46.1144 271.638 45.8297 271.301 45.4759L271.677 44.7381C272.005 45.066 272.44 45.3335 272.984 45.5406C273.528 45.7391 274.088 45.8383 274.667 45.8383C275.478 45.8383 276.086 45.6916 276.492 45.3982C276.897 45.0962 277.1 44.7079 277.1 44.2333C277.1 43.8709 276.988 43.5819 276.763 43.3662C276.548 43.1504 276.28 42.9865 275.961 42.8743C275.642 42.7535 275.197 42.6241 274.628 42.486C273.946 42.3135 273.403 42.1495 272.997 41.9942C272.591 41.8302 272.242 41.5843 271.949 41.2564C271.664 40.9285 271.521 40.4842 271.521 39.9233C271.521 39.466 271.642 39.0518 271.884 38.6808C272.125 38.3011 272.496 37.9991 272.997 37.7748C273.497 37.5504 274.119 37.4382 274.861 37.4382C275.378 37.4382 275.883 37.5116 276.375 37.6583C276.876 37.7963 277.307 37.9905 277.669 38.2407L277.346 39.0043C276.966 38.7541 276.561 38.5686 276.129 38.4478C275.698 38.3184 275.275 38.2536 274.861 38.2536C274.067 38.2536 273.467 38.409 273.062 38.7196C272.665 39.0216 272.466 39.4142 272.466 39.8974C272.466 40.2598 272.574 40.5532 272.79 40.7775C273.014 40.9933 273.29 41.1615 273.618 41.2823C273.955 41.3945 274.403 41.5196 274.964 41.6577C275.629 41.8216 276.164 41.9856 276.569 42.1495C276.983 42.3048 277.333 42.5464 277.618 42.8743C277.902 43.1936 278.045 43.6293 278.045 44.1816C278.045 44.6389 277.92 45.0574 277.669 45.4371C277.428 45.8081 277.052 46.1058 276.543 46.3301C276.034 46.5458 275.409 46.6537 274.667 46.6537Z" fill="#12204B"/>
<path d="M2.60842 32.0438C1.30373 31.3708 1.14444 29.5684 2.31089 28.6771L14.7576 19.1662C17.2227 17.2825 20.5546 16.9939 23.3069 18.4257L37.0379 25.5687C38.3304 26.2411 38.4933 28.0257 37.3438 28.9209L31.1832 33.719C25.0314 38.5101 16.656 39.2892 9.72608 35.7149L2.60842 32.0438Z" fill="#12204B"/>
<path d="M3.53083 37.706L4.57865 39.9993C4.94224 40.795 4.41006 41.7112 3.53871 41.7897C2.66737 41.8682 1.98008 41.0617 2.19568 40.2138L2.81699 37.7703C2.49012 37.6322 2.42641 37.1966 2.70006 36.9707L2.74188 36.9361L2.22686 31.2163L3.00508 31.867L3.45572 36.8719L3.49165 36.8839C3.87357 37.0118 3.89886 37.5424 3.53083 37.706Z" fill="#12204B"/>
<path d="M27.9551 47.0215C29.1641 47.6048 31.3181 48.3358 33.5192 47.5846L34.9421 47.099L32.0908 44.5276C34.3661 42.5092 35.6249 39.8811 35.6215 37.1563C35.618 34.4315 34.3525 31.8055 32.072 29.7909C29.7915 27.7763 26.6598 26.5177 23.2879 26.2608C19.9161 26.0038 16.5463 26.7669 13.8362 28.4012C11.1261 30.0355 9.27022 32.4236 8.63087 35.0995C7.99153 37.7753 8.61457 40.5468 10.3784 42.8729C12.1422 45.1991 14.9202 46.913 18.1702 47.6801C21.4201 48.4471 24.9087 48.2123 27.9551 47.0215Z" fill="#12204B"/>
<path d="M58.675 16.3576C59.9141 15.5704 59.9111 13.761 58.6694 12.9779L41.8049 2.34145C39.1808 0.686431 35.8364 0.697799 33.2237 2.37062L16.6238 12.9985C15.3967 13.7841 15.3946 15.5761 16.6197 16.3646L26.7506 22.8853C33.3072 27.1055 41.7187 27.1304 48.3002 22.949L58.675 16.3576Z" fill="#739AF0"/>
<path d="M57.714 23.4058L56.7262 26.2089C56.3835 27.1816 57.1051 28.201 58.1364 28.201C59.1677 28.201 59.8893 27.1816 59.5466 26.2089L58.5588 23.4058C58.928 23.2092 58.9567 22.691 58.6116 22.4547L58.5588 22.4186V15.6489L57.714 16.4951V22.4186L57.6731 22.4365C57.2382 22.627 57.2646 23.2526 57.714 23.4058Z" fill="#739AF0"/>
<path d="M30.6405 37.0132C29.2154 37.7008 26.6763 38.5623 24.0817 37.6769L22.4044 37.1045L25.7655 34.0733C23.0834 31.6942 21.5996 28.5963 21.6036 25.3843C21.6077 22.1724 23.0994 19.077 25.7876 16.7022C28.4758 14.3275 32.1674 12.8439 36.142 12.541C40.1167 12.2381 44.0889 13.1377 47.2835 15.0641C50.4781 16.9905 52.6657 19.8056 53.4193 22.9598C54.173 26.114 53.4386 29.3809 51.3594 32.1229C49.2803 34.8649 46.0056 36.8852 42.1747 37.7894C38.3438 38.6936 34.2315 38.4169 30.6405 37.0132Z" fill="#739AF0"/>
</g>
</svg>
