<svg width="auto" height="492" viewBox="0 0 641 492" fill="none" xmlns="http://www.w3.org/2000/svg">
<path d="M292.103 204.241C291.168 205.873 290.16 207.486 289.078 209.082C289.078 209.1 289.069 209.118 289.051 209.137C289.051 209.137 289.051 209.146 289.051 209.164C288.611 209.806 288.161 210.448 287.703 211.09C286.768 212.373 285.788 213.639 284.761 214.886C284.559 215.124 284.358 215.362 284.156 215.601C283.294 216.646 282.378 217.682 281.406 218.709C280.27 219.938 279.078 221.148 277.831 222.34C276.988 223.128 276.127 223.908 275.247 224.678C273.23 226.438 271.085 228.153 268.812 229.821C267.052 231.123 265.21 232.389 263.285 233.617C260.939 235.121 258.455 236.579 255.833 237.991C245.824 243.354 236.2 247.975 227.071 251.936C226.411 252.23 225.76 252.514 225.118 252.789C223.413 253.522 221.718 254.229 220.031 254.907C218.051 255.732 216.09 256.521 214.147 257.273C212.625 257.859 211.113 258.437 209.609 259.005C205.301 260.619 201.103 262.086 197.015 263.406C196.374 263.626 195.723 263.837 195.063 264.039C192.662 264.809 190.306 265.524 187.996 266.185C184.037 267.34 180.214 268.376 176.53 269.293C163.853 272.401 152.799 274.161 143.505 275.096H110.975C110.498 275.023 110.132 274.959 109.875 274.904C105.604 274.904 100.526 274.244 94.6412 272.924C91.864 272.318 88.8667 271.493 85.732 270.42C84.1646 269.87 82.5972 269.293 81.0023 268.633C76.4377 266.707 71.7631 264.232 67.3085 260.958C62.1389 257.162 57.2718 252.349 53.3121 246.188C34.3661 216.646 79.435 166.447 137.538 131.129C139.756 129.772 141.992 128.443 144.247 127.141C151.754 122.795 159.481 118.697 167.263 114.956C174.522 111.463 181.837 108.272 189.124 105.411C190.828 104.751 192.478 104.118 194.183 103.486C194.202 103.486 194.22 103.486 194.238 103.486C194.321 103.431 194.431 103.403 194.513 103.376H194.541C198.079 102.074 201.608 100.864 205.127 99.7449C272.442 78.3176 322.598 150.439 292.103 204.241V204.241Z" fill="#D9E9FE"/>
<path opacity="0.2" d="M231.168 190.405C231.058 191.597 230.902 193.211 230.7 195.246C230.7 195.283 230.691 195.329 230.673 195.384C230.508 197.227 230.288 199.51 230.013 202.123C229.94 202.929 229.866 203.773 229.793 204.653C229.646 205.992 229.509 207.395 229.381 208.862C229.161 211.007 228.941 213.263 228.721 215.601C228.501 217.774 228.281 220.029 228.061 222.34C227.813 224.788 227.566 227.318 227.346 229.821C227.217 231.087 227.089 232.352 226.961 233.617C226.741 236.093 226.493 238.568 226.246 241.016C226.053 243.024 225.861 245.032 225.696 246.958C225.503 248.966 225.311 250.919 225.118 252.789C223.414 253.522 221.718 254.228 220.031 254.907C218.051 255.732 216.09 256.521 214.147 257.272C212.625 257.859 211.113 258.437 209.61 259.005C205.302 260.619 201.104 262.086 197.016 263.406C196.374 263.626 195.723 263.837 195.063 264.039L195.641 257.272L195.833 254.907L197.043 240.631L197.621 233.617L197.923 230.069L197.951 229.821L198.583 222.34L199.16 215.601L199.71 208.862L200.288 202.123L200.755 196.346L200.838 195.384L201.195 191.175L203.093 191.12L212.772 190.873L226.136 190.515H226.163L231.168 190.405Z" fill="#D9E9FE"/>
<path d="M233.175 188.892C233.029 190.488 232.827 192.606 232.57 195.246C232.552 195.283 232.543 195.329 232.543 195.384C232.35 197.309 232.13 199.592 231.883 202.123C231.69 204.213 231.47 206.469 231.223 208.862C231.186 209.192 231.159 209.522 231.14 209.852C230.948 211.695 230.755 213.62 230.563 215.601C230.371 217.774 230.123 220.029 229.931 222.34C229.683 224.815 229.436 227.318 229.188 229.821C229.06 231.087 228.941 232.352 228.831 233.617C228.583 236.038 228.363 238.431 228.116 240.796C227.896 243.327 227.648 245.775 227.428 248.14C227.428 248.159 227.428 248.168 227.428 248.168C227.3 249.452 227.181 250.708 227.071 251.936C226.411 252.23 225.76 252.514 225.118 252.789C223.414 253.522 221.718 254.228 220.031 254.907C218.051 255.732 216.09 256.521 214.147 257.272C212.625 257.859 211.113 258.437 209.61 259.005C205.302 260.619 201.104 262.086 197.016 263.406L197.346 259.555L197.538 257.272L197.731 254.907L197.868 253.367L198.308 248.14L198.995 239.971L199.518 233.617L199.793 230.316L199.848 229.821L200.48 222.34L201.03 215.601L201.608 208.862L202.158 202.123L202.185 201.848L202.735 195.384L203.093 191.12L203.203 189.69L212.414 189.442L225.751 189.085H225.778L233.175 188.892Z" fill="#FB7369"/>
<path d="M289.051 209.164C288.611 209.806 288.162 210.448 287.703 211.09C286.768 212.373 285.788 213.639 284.761 214.886C284.559 215.124 284.358 215.362 284.156 215.601C283.295 216.646 282.378 217.682 281.406 218.709C280.27 219.937 279.078 221.148 277.832 222.34C276.988 223.128 276.127 223.908 275.247 224.678C273.23 226.438 271.086 228.153 268.812 229.821C267.053 231.123 265.21 232.389 263.285 233.617C260.939 235.121 258.455 236.579 255.833 237.991C245.824 243.354 236.2 247.975 227.071 251.936C226.411 252.23 225.76 252.514 225.118 252.789C223.414 253.522 221.718 254.228 220.031 254.907H155.412L150.104 233.617L147.575 223.385L128.766 147.826L128.409 146.395H272.305L289.051 209.164Z" fill="#F2564B"/>
<path d="M155.411 254.907L152.304 257.272L126.071 147.165L128.409 146.395L155.411 254.907Z" fill="#FB7369"/>
<path d="M220.031 254.907C218.051 255.732 216.09 256.521 214.147 257.272H152.304L155.411 254.907H220.031Z" fill="#F2564B"/>
<path d="M289.051 209.137C289.051 209.137 289.051 209.146 289.051 209.164C288.611 209.806 288.162 210.448 287.703 211.09L270.517 147.826H128.161V146.395H272.304L289.051 209.137Z" fill="#3A4ACE"/>
<path opacity="0.2" d="M214.147 257.272C212.625 257.859 211.113 258.437 209.61 259.005C205.302 260.619 201.104 262.086 197.016 263.406L197.346 259.555L197.538 257.272H214.147Z" fill="#D9E9FE"/>
<path d="M219.481 232.957L155.412 254.907L147.575 223.385L219.481 232.957Z" fill="#FB7369"/>
<path d="M289.078 209.082C289.078 209.1 289.069 209.118 289.051 209.137C289.051 209.137 289.051 209.146 289.051 209.164C288.611 209.806 288.162 210.448 287.703 211.09C286.769 212.373 285.788 213.639 284.761 214.886C284.56 215.124 284.358 215.362 284.156 215.601C283.295 216.646 282.378 217.682 281.406 218.709C280.27 219.938 279.078 221.148 277.832 222.34C276.988 223.128 276.127 223.908 275.247 224.678C273.23 226.438 271.086 228.153 268.812 229.821C267.053 231.123 265.21 232.389 263.285 233.617H149.362L128.739 147.826L128.409 146.395H272.305L289.078 209.082Z" fill="#FB7369"/>
<path opacity="0.2" d="M229.078 248.525C226.933 248.525 224.871 246.765 224.458 244.647C224.046 242.502 225.421 240.769 227.566 240.769C229.71 240.769 231.773 242.502 232.185 244.647C232.598 246.765 231.223 248.525 229.078 248.525Z" fill="#D9E9FE"/>
<path d="M284.761 214.885C284.56 215.124 284.358 215.362 284.156 215.601C283.295 216.646 282.378 217.682 281.406 218.709C280.27 219.937 279.078 221.148 277.832 222.34C276.988 223.128 276.127 223.907 275.247 224.678C273.23 226.438 271.086 228.152 268.812 229.821H154.147L152.689 224.072L152.249 222.34L150.572 215.601L148.867 208.862L147.19 202.123L145.485 195.384L143.807 188.645L140.425 175.194L138.885 169.033L137.703 164.357L136.713 160.396L134.376 151.071H267.163L269.72 160.396L270.82 164.357L272.112 169.033L273.817 175.194L275.659 181.933L277.529 188.645L279.372 195.384L281.241 202.123L283.084 208.862L284.761 214.885Z" fill="#D9E9FE"/>
<path d="M269.72 160.396H136.713L134.376 151.071H267.163L269.72 160.396Z" fill="#AFCDFB"/>
<path d="M272.112 169.033H138.885L137.703 164.357H270.82L272.112 169.033Z" fill="#AFCDFB"/>
<path d="M168.94 229.876L152.002 164.412L152.387 164.329L169.325 229.794L168.94 229.876Z" fill="#AFCDFB"/>
<path d="M182.387 229.876L165.448 164.412L165.806 164.329L182.744 229.794L182.387 229.876Z" fill="#AFCDFB"/>
<path d="M195.806 229.876L178.867 164.412L179.252 164.329L196.191 229.794L195.806 229.876Z" fill="#AFCDFB"/>
<path d="M209.252 229.876L192.313 164.412L192.671 164.329L209.61 229.794L209.252 229.876Z" fill="#AFCDFB"/>
<path d="M222.671 229.876L205.732 164.412L206.117 164.329L223.056 229.794L222.671 229.876Z" fill="#AFCDFB"/>
<path d="M236.117 229.876L219.179 164.412L219.536 164.329L236.475 229.794L236.117 229.876Z" fill="#AFCDFB"/>
<path d="M249.536 229.876L232.598 164.412L232.983 164.329L249.921 229.794L249.536 229.876Z" fill="#AFCDFB"/>
<path d="M262.983 229.876L246.044 164.412L246.402 164.329L263.34 229.794L262.983 229.876Z" fill="#AFCDFB"/>
<path d="M275.082 224.733L259.463 164.412L259.848 164.329L275.439 224.623L275.082 224.733Z" fill="#AFCDFB"/>
<path d="M181.864 175.194H195.283L197.043 181.933H183.597L181.864 175.194Z" fill="#3A4ACE"/>
<path d="M156.896 181.933H170.343L171.993 188.342H158.601L156.896 181.933Z" fill="#3A4ACE"/>
<path d="M222.286 175.194H235.733L237.465 181.933H224.046L222.286 175.194Z" fill="#3A4ACE"/>
<path d="M225.696 188.81H239.142L240.792 195.246H227.401L225.696 188.81Z" fill="#3A4ACE"/>
<path d="M215.687 202.123H242.635L244.312 208.862H217.447L215.687 202.123Z" fill="#3A4ACE"/>
<path d="M274.009 175.387H140.233V175.002H274.009V175.387Z" fill="#AFCDFB"/>
<path d="M275.824 182.126H142.13V181.741H275.824V182.126Z" fill="#AFCDFB"/>
<path d="M277.639 188.865H143.477V188.452H277.639V188.865Z" fill="#AFCDFB"/>
<path d="M279.454 195.576H145.457V195.191H279.454V195.576Z" fill="#AFCDFB"/>
<path d="M281.269 202.315H147.162V201.93H281.269V202.315Z" fill="#AFCDFB"/>
<path d="M283.111 209.054H148.757V208.669H283.111V209.054Z" fill="#AFCDFB"/>
<path d="M284.156 215.793H150.407V215.408H284.156V215.793Z" fill="#AFCDFB"/>
<path d="M277.832 222.532H152.222V222.147H277.832V222.532Z" fill="#AFCDFB"/>
<path d="M142.185 155.28C142.35 155.912 141.965 156.435 141.333 156.435C140.673 156.435 140.013 155.912 139.875 155.28C139.71 154.647 140.095 154.125 140.728 154.125C141.388 154.125 142.02 154.647 142.185 155.28Z" fill="#D9E9FE"/>
<path d="M146.062 155.28C146.227 155.912 145.842 156.435 145.182 156.435C144.55 156.435 143.89 155.912 143.725 155.28C143.587 154.647 143.972 154.125 144.605 154.125C145.265 154.125 145.897 154.647 146.062 155.28Z" fill="#D9E9FE"/>
<path d="M149.362 156.435C148.729 156.435 148.069 155.912 147.904 155.28C147.739 154.647 148.124 154.125 148.784 154.125C149.417 154.125 150.077 154.647 150.242 155.28C150.407 155.912 149.994 156.435 149.362 156.435Z" fill="#D9E9FE"/>
<path d="M111.772 236.23H77.1526V201.628H111.772V236.23Z" fill="#4A75CB"/>
<path d="M122.442 236.23H87.8218V201.628H122.442V236.23Z" fill="#699DEE"/>
<path d="M116.309 216.398V221.459H94.6411V216.398H116.309Z" fill="#EBF2F9"/>
<path d="M125.246 236.23V275.096H110.975C110.498 275.023 110.132 274.959 109.875 274.904C105.604 274.904 100.526 274.244 94.6411 272.923C91.8638 272.318 88.8666 271.493 85.7318 270.42C84.1645 269.87 82.5971 269.293 81.0022 268.632V236.23H125.246Z" fill="#6D89D0"/>
<path d="M138.885 236.23V275.096H110.975C110.498 275.023 110.132 274.959 109.875 274.904C105.604 274.904 100.526 274.244 94.6411 272.923V236.23H138.885Z" fill="#3A4ACE"/>
<path d="M124.889 270.31L117.272 262.911L109.902 270.558L105.255 266.047L112.625 258.428L105.008 251.056L109.49 246.407L117.134 253.779L124.504 246.16L129.151 250.643L121.754 258.29L129.398 265.662L124.889 270.31Z" fill="#EBF2F9"/>
<path d="M94.6411 236.23L81.0022 244.51V236.23H94.6411Z" fill="#030631"/>
<path d="M633.68 80.3531C631.563 84.0939 628.951 87.6697 625.761 91.0805C620.811 96.3891 614.542 101.23 606.788 105.384C594.469 111.958 583.03 117.046 572.525 120.98C568.694 122.392 564.991 123.666 561.416 124.803C559.748 125.335 558.107 125.839 556.494 126.316C553.561 127.159 550.729 127.92 547.997 128.599C546.237 129.021 544.523 129.415 542.855 129.782C539.638 130.497 536.558 131.074 533.643 131.542C531.279 131.945 529.024 132.275 526.879 132.532C526.696 132.551 526.503 132.569 526.302 132.587C526.1 132.624 525.889 132.651 525.669 132.67C524.936 132.761 524.212 132.835 523.497 132.89H499.354C499.097 132.853 498.895 132.826 498.749 132.807C498.712 132.789 498.675 132.78 498.639 132.78C498.602 132.78 498.575 132.78 498.556 132.78C493.075 132.78 487.099 131.67 480.628 129.452C476.201 127.911 471.416 125.683 466.989 122.437C463.139 119.604 459.537 116.029 456.595 111.462C442.543 89.5676 475.981 52.3518 519.07 26.1385C520.701 25.1483 522.351 24.1672 524.019 23.1953C529.601 19.9771 535.321 16.9514 541.095 14.1733C546.485 11.5602 551.902 9.1947 557.319 7.07673C558.584 6.58162 559.821 6.11402 561.059 5.64641H561.086H561.114C561.169 5.61891 561.251 5.5914 561.306 5.56389H561.334C563.955 4.59201 566.567 3.69348 569.171 2.86829C593.121 -4.75091 614.157 3.58345 627.053 18.7393C641.022 35.188 645.449 59.6134 633.68 80.3531V80.3531Z" fill="#D9E9FE"/>
<path d="M564.799 19.7846C587.567 17.254 606.962 18.5652 622.984 23.718C624.964 60.5212 613.735 83.1771 589.299 91.6856C566.531 81.5084 558.364 57.5414 564.799 19.7846Z" fill="white"/>
<path d="M568.428 23.5529C589.253 22.2693 605.88 23.3696 618.309 26.8537C620.546 56.7803 611.114 76.5481 590.014 86.1569C571.701 79.6288 564.505 58.7608 568.428 23.5529Z" fill="#739AF0"/>
<path d="M605.028 53.7822L595.761 53.1496L595.156 62.1991L586.659 61.649L587.264 52.5994L578.438 52.0218L579.015 43.5224L587.814 44.1001L588.419 35.0505L596.916 35.6007L596.311 44.6502L605.605 45.2828L605.028 53.7822Z" fill="white"/>
<path d="M530.042 71.6886C525.422 73.1556 519.116 71.9178 511.123 67.9753C514.734 65.2797 516.742 61.1262 517.145 55.515C517.145 55.3866 517.145 55.2674 517.145 55.1574C517.182 54.5339 517.191 53.883 517.173 53.2045L519.07 54.7448L526.164 60.4661C525.926 62.3549 525.761 64.8671 525.669 68.0028C526.797 68.6079 527.677 69.2956 528.364 69.9007C529.116 70.5609 529.675 71.1568 530.042 71.6886Z" fill="#FC9490"/>
<path d="M537.768 117.844C537.768 117.972 537.768 118.091 537.768 118.201C537.603 124.61 536.806 129.479 534.881 130.854C534.514 131.111 534.102 131.34 533.644 131.542C531.279 131.945 529.024 132.275 526.879 132.532C526.696 132.55 526.503 132.569 526.302 132.587C526.1 132.624 525.889 132.651 525.669 132.67C524.936 132.761 524.212 132.835 523.497 132.89H518.272C513.158 132.523 508.208 131.844 503.424 130.854V67.095L503.479 67.0675H503.561L503.616 67.04C503.946 67.0125 504.688 66.9025 505.761 66.8199C506.274 66.7649 506.861 66.7191 507.521 66.6824C507.722 66.6824 507.924 66.6733 508.126 66.6549C508.602 66.6366 509.106 66.6182 509.638 66.5999C510.371 66.5816 511.15 66.5724 511.975 66.5724C512.177 66.5724 512.379 66.5724 512.58 66.5724C512.727 66.5907 512.883 66.5999 513.048 66.5999C514.065 66.6274 515.138 66.6824 516.238 66.7649C519.207 67.0125 522.425 67.5076 525.587 68.4428C525.605 68.4612 525.624 68.4703 525.642 68.4703C526.173 68.6354 526.705 68.8096 527.237 68.9929C528.172 69.3047 529.088 69.6622 529.986 70.0657C530.335 70.2307 530.674 70.3957 531.004 70.5608C531.242 70.6891 531.49 70.8175 531.746 70.9459C532.443 71.331 533.13 71.7435 533.809 72.1836C534.194 74.6775 534.624 77.8041 535.101 81.5632C535.174 82.15 535.248 82.7643 535.321 83.4061C535.468 84.5431 535.614 85.7258 535.761 86.9544C535.761 87.0828 535.77 87.202 535.789 87.312C536.861 96.7466 537.961 108.767 537.768 117.844V117.844Z" fill="#FC9490"/>
<path d="M526.879 132.532C526.696 132.551 526.503 132.569 526.302 132.587C526.1 132.624 525.889 132.651 525.669 132.67C524.936 132.761 524.212 132.835 523.497 132.89H499.354C499.097 132.853 498.896 132.826 498.749 132.807L498.639 132.78C499.106 126.563 499.491 121.365 499.711 118.284C499.766 117.789 499.812 117.275 499.849 116.744C500.096 113.415 500.426 109.069 500.784 104.338C500.875 102.963 500.976 101.56 501.086 100.13C501.16 99.2314 501.224 98.3329 501.279 97.4344L501.334 96.8843C502.049 86.6245 502.819 76.0621 503.176 70.6709C503.286 69.1672 503.369 67.9753 503.424 67.0951L503.479 67.0676H503.561L503.616 67.0401L505.733 66.6825L507.576 66.38L508.181 66.2699L509.556 66.0499L511.343 65.7473L511.975 66.5725L512.25 66.9301L512.773 67.5902L514.038 69.2681L524.872 83.2962C524.89 83.2962 524.899 83.2962 524.899 83.2962V83.3237C524.899 83.3604 524.899 83.4063 524.899 83.4613L524.927 83.7088C524.927 83.7272 524.927 83.7547 524.927 83.7913C524.982 85.2492 525.202 89.9527 525.477 96.0316C525.477 96.0499 525.477 96.0682 525.477 96.0866C525.495 96.545 525.513 97.0126 525.532 97.4894C525.532 97.5077 525.532 97.5169 525.532 97.5169C525.614 99.5523 525.724 101.698 525.807 103.926C525.807 103.963 525.807 103.99 525.807 104.008C525.843 104.687 525.871 105.365 525.889 106.044V106.071C525.908 106.291 525.917 106.511 525.917 106.731C525.953 107.245 525.981 107.749 525.999 108.244C526.054 109.803 526.118 111.371 526.192 112.948C526.228 113.993 526.265 115.029 526.302 116.056V116.084C526.32 116.45 526.338 116.817 526.357 117.184C526.357 117.312 526.357 117.431 526.357 117.541C526.604 123.318 526.797 128.654 526.879 132.532V132.532Z" fill="#E9F2FF"/>
<path d="M526.302 132.587L525.889 118.504V118.449L525.862 117.514V117.156L525.752 113.085L525.614 108.162L525.587 107.447V107.419L525.559 106.731L524.927 83.7913V83.7638V83.7088L524.899 83.4613V83.3237L525.449 72.1562L525.642 68.4704L525.669 68.0028C525.807 68.0303 527.649 68.6905 530.041 69.7082C530.298 69.8182 530.564 69.9374 530.839 70.0658C531.004 70.1391 531.169 70.2125 531.334 70.2858C531.425 70.3225 531.508 70.3592 531.581 70.3958C534.413 71.6611 537.603 73.3115 539.528 74.9894C540.958 76.2271 541.81 79.4729 542.305 83.5988C542.379 84.2223 542.443 84.8641 542.498 85.5242C542.535 85.7626 542.562 86.0102 542.58 86.2669C542.617 86.6886 542.645 87.1287 542.663 87.5872C542.663 87.6239 542.672 87.6605 542.69 87.6972C542.69 87.7706 542.69 87.8531 542.69 87.9448C542.745 88.7699 542.791 89.6043 542.828 90.4478C543.02 95.0413 542.965 99.9374 542.883 104.063C542.8 107.997 542.663 111.27 542.69 112.975C542.69 113.773 542.718 115.588 542.745 118.119C542.745 118.247 542.745 118.376 542.745 118.504C542.773 121.447 542.8 125.353 542.855 129.782C539.638 130.497 536.558 131.074 533.644 131.542C531.279 131.945 529.024 132.275 526.879 132.532C526.696 132.551 526.503 132.569 526.302 132.587V132.587Z" fill="#E9F2FF"/>
<path d="M525.779 65.4723C528.731 67.5811 530.151 69.0022 530.041 69.7357C529.931 70.4692 529.675 71.4136 529.271 72.5689L526.549 72.0188L528.831 73.6141C527.108 78.6753 525.797 81.9118 524.899 83.3238L525.779 65.4723Z" fill="#E9F2FF"/>
<path opacity="0.2" d="M523.992 117.046C523.974 117.175 523.964 117.294 523.964 117.404C523.946 117.716 523.919 118.018 523.882 118.312C523.304 123.125 522.425 128.021 521.297 132.89H499.354C499.097 132.853 498.896 132.826 498.749 132.807L499.904 116.744L500.784 104.366V104.338L501.086 100.13L501.279 97.4344L501.334 96.8843C501.609 95.0964 502.379 93.9687 503.424 93.391C503.717 93.2443 504.029 93.1343 504.359 93.061C509.116 92.0157 517.915 98.9748 521.902 107.667C522.48 108.877 522.947 110.115 523.277 111.38C523.332 111.545 523.378 111.701 523.414 111.848C523.543 112.343 523.644 112.838 523.717 113.333C523.937 114.571 524.019 115.809 523.992 117.046V117.046Z" fill="#B2CBFD"/>
<path d="M517.145 55.5149C517.127 55.3682 517.09 55.2582 517.035 55.1849L517.145 55.1573L519.07 54.7448L526.164 60.466C525.926 62.3365 525.752 64.8395 525.642 67.9752C525.642 67.9477 518.327 63.9318 517.145 55.5149V55.5149Z" fill="#FF8585"/>
<path d="M529.079 62.1989C520.83 61.9789 516.815 59.3016 517.035 54.1671C517.365 46.4654 516.018 41.2393 523.909 41.1292C531.801 41.0467 533.231 44.0449 533.726 46.6305C534.249 49.216 532.296 62.0889 529.079 62.1989V62.1989Z" fill="#FC9490"/>
<path d="M518.327 35.793C522.03 32.749 528.52 34.5277 537.796 41.1292C536.293 43.018 534.964 44.54 533.809 45.6952C532.626 46.9055 528.914 44.815 526.109 45.2276C523.304 45.6677 521.187 52.2142 519.922 53.9196C519.079 55.0381 518.117 55.4599 517.035 55.1849C510.848 47.0981 512.773 40.3866 518.327 35.793Z" fill="#2C3A64"/>
<path d="M533.726 82.6635C533.451 77.9049 530.866 70.1207 530.839 70.0657L531.581 70.3958C531.664 70.6983 533.754 77.7949 534.001 82.6635H533.726Z" fill="#2C3A64"/>
<path d="M515.715 96.8841C515.468 96.6365 509.116 90.5027 510.463 86.2117C510.985 84.5338 511.975 83.8737 512.993 83.4061C513.955 83.0485 516.21 82.6909 517.365 83.4061C519.482 84.7539 520.555 88.4397 520.885 94.5736H520.61C520.252 87.3119 518.355 84.6713 516.952 84.0937C515.193 83.3235 512.113 83.6536 511.15 86.4593C510.463 88.4122 511.783 91.1078 513.02 92.9782C514.368 95.0412 515.825 96.8841 515.853 96.8841H515.715Z" fill="#2C3A64"/>
<path d="M516.375 96.6641C516.622 96.9117 516.622 97.3243 516.375 97.5443C516.155 97.7919 515.742 97.7919 515.495 97.5443L515.055 97.1317C514.835 96.8842 514.835 96.4716 515.055 96.224C515.303 95.9764 515.715 95.9764 515.962 96.224L516.375 96.6641Z" fill="#B64C41"/>
<path d="M521.379 94.4912V95.0963C521.379 95.4539 521.104 95.7289 520.774 95.7289C520.417 95.7289 520.142 95.4539 520.142 95.0963V94.4912C520.142 94.1611 520.417 93.8585 520.774 93.8585C521.104 93.8585 521.379 94.1611 521.379 94.4912Z" fill="#B64C41"/>
<path d="M533.809 84.3689C534.75 84.3689 535.513 83.6053 535.513 82.6635C535.513 81.7216 534.75 80.9581 533.809 80.9581C532.867 80.9581 532.104 81.7216 532.104 82.6635C532.104 83.6053 532.867 84.3689 533.809 84.3689Z" fill="#2C3A64"/>
<path d="M533.863 83.5163C534.334 83.5163 534.716 83.1345 534.716 82.6636C534.716 82.1927 534.334 81.8109 533.863 81.8109C533.393 81.8109 533.011 82.1927 533.011 82.6636C533.011 83.1345 533.393 83.5163 533.863 83.5163Z" fill="#D6716B"/>
<path d="M526.302 132.587C526.1 132.624 525.889 132.651 525.669 132.67C525.807 128.626 525.889 123.538 525.889 118.504V118.449C525.889 118.137 525.889 117.825 525.889 117.514C525.908 117.404 525.908 117.285 525.889 117.156C525.917 115.781 525.917 114.378 525.889 113.03C525.889 111.352 525.889 109.73 525.862 108.217C525.862 107.758 525.862 107.318 525.862 106.896C525.862 106.658 525.853 106.42 525.834 106.181C525.834 105.411 525.825 104.687 525.807 104.008C525.807 103.99 525.807 103.962 525.807 103.926C525.752 101.148 525.697 99.1397 525.614 98.4245C525.578 98.1311 525.55 97.8285 525.532 97.5168C525.532 97.5168 525.532 97.5076 525.532 97.4893C525.495 97.0125 525.477 96.5449 525.477 96.0865C525.477 96.0682 525.477 96.0498 525.477 96.0315C525.422 93.5834 525.669 91.3279 525.917 90.5302C526.192 89.595 525.257 85.2216 524.927 83.7912V83.7637C524.872 83.5162 524.817 83.3511 524.817 83.3511L524.899 83.3236L524.982 83.2961C525.064 83.5712 526.577 89.485 526.219 90.6128C525.917 91.6855 525.422 95.1788 525.779 98.397C525.862 99.2772 525.999 102 526.082 105.659C526.1 105.897 526.109 106.135 526.109 106.374C526.128 106.979 526.146 107.621 526.164 108.299C526.192 109.757 526.219 111.297 526.247 112.893C526.265 113.938 526.283 114.992 526.302 116.056V116.083C526.32 116.45 526.329 116.817 526.329 117.184C526.329 117.312 526.329 117.431 526.329 117.541C526.384 122.85 526.412 128.324 526.302 132.587V132.587Z" fill="#B2CBFD"/>
<path d="M535.321 86.9269L562.049 89.3199L545.743 118.311L520.582 116.854L535.321 86.9269Z" fill="#B64C41"/>
<path d="M553.717 104.036C556.503 108.84 556.43 111.875 553.497 113.14C550.582 114.406 548.969 114.378 548.657 113.058L553.717 104.036Z" fill="#E9F2FF"/>
<path d="M535.513 87.2845L562.241 89.6776L545.935 118.669L520.774 117.239L535.513 87.2845Z" fill="#293EB7"/>
<path d="M549.73 111.105C547.915 108.923 547.191 107.034 547.558 105.439C548.135 103.073 550.17 102.523 551.407 103.348C552.645 104.201 554.459 106.126 554.129 107.584C553.799 109.069 551.105 111.793 549.73 111.105V111.105Z" fill="#FC9490"/>
<path d="M537.961 87.1471C537.979 84.4148 538.74 83.1495 540.243 83.3512C541.746 83.5346 542.727 85.0016 543.185 87.7522L537.961 87.1471Z" fill="#B2CBFD"/>
<path d="M557.512 85.4967C559.519 85.9643 561.059 91.383 558.886 96.114C557.438 99.2681 557.365 102.404 558.666 105.521L540.655 103.871C539.693 100.35 541.343 97.0768 542.69 91.1354C543.57 87.1746 542.754 84.5798 540.243 83.3512L557.512 85.4967Z" fill="#E9F2FF"/>
<path d="M517.062 109.152C520.16 107.795 522.415 107.309 523.827 107.694C525.944 108.299 528.804 108.739 529.052 109.482C529.271 110.252 527.512 113.085 524.899 113.223C522.287 113.388 517.722 114.598 516.595 113.223C515.862 112.324 516.017 110.967 517.062 109.152V109.152Z" fill="#FC9490"/>
<path d="M518.437 108.354C518.877 109.253 519.07 110.105 519.015 110.912C518.96 111.774 518.74 112.847 518.355 114.131C501.123 117.798 490.83 118.101 487.475 115.038C482.085 110.087 492.095 72.9814 496.357 69.3506C498.227 67.7827 502.104 66.82 505.706 66.2424C507.686 65.9398 509.556 65.7473 510.985 65.6097C511.939 65.5364 512.727 65.4814 513.35 65.4447L512.773 67.5902L510.518 75.9795L507.878 85.7442C502.599 96.6 499.876 102.541 499.711 103.568C499.546 104.577 505.788 106.172 518.437 108.354V108.354Z" fill="#E9F2FF"/>
<path opacity="0.2" d="M522.039 80.7381C517.64 78.8127 513.863 76.9789 510.71 75.2369C507.603 73.5315 506.036 70.3408 505.706 66.2424C507.686 65.9398 509.555 65.7473 510.985 65.6097C511.132 65.6648 511.251 65.7106 511.343 65.7473L512.773 67.5902L522.039 80.7381Z" fill="#B2CBFD"/>
<path d="M511.7 74.4943C511.884 74.3843 512.305 73.8433 512.965 72.8714C512.764 72.7431 512.003 72.7614 510.683 72.9264C510.353 72.0462 509.968 69.644 509.528 65.7198C510.39 64.913 512.095 64.2528 514.643 63.7394L524.899 83.3238C522.058 80.2247 517.658 77.2816 511.7 74.4943Z" fill="#E9F2FF"/>
<path d="M513.02 84.0938C512.333 82.526 506.146 69.323 507.713 65.9673L508.318 65.8848C507.136 68.4428 511.425 79.9129 513.268 84.0388L513.02 84.0938Z" fill="#2C3A64"/>
<path opacity="0.5" d="M527.484 96.3339C527.94 96.3339 528.309 95.9645 528.309 95.5088C528.309 95.053 527.94 94.6836 527.484 94.6836C527.029 94.6836 526.659 95.053 526.659 95.5088C526.659 95.9645 527.029 96.3339 527.484 96.3339Z" fill="#B2CBFD"/>
<path opacity="0.5" d="M527.897 121.42C528.352 121.42 528.722 121.05 528.722 120.594C528.722 120.139 528.352 119.769 527.897 119.769C527.441 119.769 527.072 120.139 527.072 120.594C527.072 121.05 527.441 121.42 527.897 121.42Z" fill="#B2CBFD"/>
<path d="M517.942 70.0657C519.904 70.9642 522.415 71.1201 525.477 70.5333L524.899 83.3236L517.942 70.0657Z" fill="#7A97F3"/>
<path d="M620.701 358.688C620.619 359.76 620.509 360.806 620.399 361.851C620.234 363.144 620.069 364.436 619.849 365.674C619.766 366.252 619.684 366.829 619.574 367.379C619.464 368.095 619.327 368.782 619.189 369.497C619.079 370.158 618.914 370.845 618.749 371.505C618.639 372.138 618.474 372.771 618.364 373.348C618.217 373.972 618.062 374.595 617.897 375.219C617.704 375.961 617.512 376.704 617.264 377.447C616.302 380.94 615.174 384.131 613.964 386.909C612.37 390.622 610.692 393.538 609.097 395.353L608.355 396.096C607.777 396.646 607.145 397.196 606.458 397.636C599.693 402.615 588.804 404.32 576.265 402.725C575.33 402.615 574.395 402.505 573.405 402.312C573.13 402.312 572.828 402.23 572.553 402.175C570.326 401.845 568.071 401.322 565.788 400.744C565.376 400.662 564.991 400.552 564.578 400.442C563.974 400.277 563.451 400.112 562.846 399.974C561.416 399.534 560.014 399.094 558.557 398.626C557.237 398.159 555.917 397.691 554.597 397.196C553.579 396.811 552.617 396.426 551.6 395.986C551.517 395.958 551.407 395.903 551.297 395.876C549.849 395.252 548.401 394.592 546.952 393.895C546.21 393.565 545.495 393.235 544.753 392.795C544.23 392.548 543.735 392.328 543.213 392.053C542.223 391.502 541.233 390.952 540.216 390.43C540.078 390.292 539.886 390.21 539.666 390.1C538.043 389.164 536.366 388.147 534.743 387.101C533.836 386.524 532.929 385.946 532.049 385.313C530.124 383.993 528.501 382.508 527.209 380.913C527.182 380.858 527.182 380.857 527.127 380.83C526.632 380.197 526.192 379.592 525.779 378.932C522.534 373.843 521.792 367.737 522.617 361.301C523.304 355.689 525.174 349.858 527.594 344.247C530.481 337.508 534.139 331.071 537.576 325.708C538.089 324.919 538.593 324.14 539.088 323.37C540.188 321.719 541.233 320.206 542.223 318.804C543.625 316.823 544.863 315.145 545.825 313.88C546.705 312.725 547.411 311.817 547.942 311.157C548.181 310.9 548.529 310.561 548.987 310.139C554.157 305.326 578.355 286.071 607.503 313.605C607.805 313.853 608.08 314.128 608.355 314.403C611.352 317.318 613.772 320.757 615.642 324.497C616.742 326.753 617.677 329.173 618.447 331.622C620.069 337.04 620.866 342.872 621.004 348.73C621.141 352.086 621.004 355.387 620.701 358.688V358.688Z" fill="#D9E9FE"/>
<path d="M576.265 402.725C575.33 402.615 574.395 402.505 573.405 402.312L568.786 381.215L567.961 377.447L563.396 356.625L563.286 356.157L560.371 342.844L557.374 329.173L565.458 328.761L567.796 344.797L569.473 356.239L569.528 356.625L572.553 377.447L573.103 381.215L576.265 402.725Z" fill="#6D89D0"/>
<path d="M609.097 395.353L608.355 396.096C607.777 396.646 607.145 397.196 606.457 397.636L601.7 381.215L600.6 377.557L594.523 356.625L594.496 356.514L591.966 347.74L586.219 328.073L594.496 328.761L597.988 344.797L600.6 356.597V356.625L605.193 377.557L605.99 381.215L609.097 395.353Z" fill="#6D89D0"/>
<path d="M559.244 346.86L557.869 352.086L556.274 358.22L546.952 393.895C546.21 393.565 545.495 393.235 544.752 392.795L553.827 349.143L555.229 342.294L557.374 332.089L558.694 342.596L559.244 346.86Z" fill="#6D89D0"/>
<path d="M595.321 321.912L612.149 381.243H562.461L546.457 321.912H595.321Z" fill="#6D89D0"/>
<path d="M609.207 377.612C601.765 377.575 594.322 377.538 586.879 377.502C586.366 377.502 585.853 377.493 585.339 377.474C585.174 377.474 585.009 377.474 584.844 377.474C584.331 377.474 583.827 377.474 583.332 377.474C573.818 377.447 565.238 377.392 564.716 377.392L559.106 356.652L558.969 356.13L555.257 342.404L550.307 324.002H593.891L599.611 344.054L603.24 356.652L609.207 377.612Z" fill="#FFF2E6"/>
<path d="M603.24 356.652H559.107L558.969 356.13L555.257 342.404C561.49 342.349 567.173 343.853 572.305 346.915C580.005 351.509 587.704 350.133 591.114 348.208C593.781 346.722 597.906 344.825 599.611 344.054L603.24 356.652Z" fill="#699FF0"/>
<path d="M609.207 377.612C601.765 377.575 594.322 377.538 586.879 377.502C586.366 377.502 585.853 377.493 585.339 377.474C585.174 377.474 585.009 377.474 584.844 377.474C584.331 377.474 583.827 377.474 583.332 377.474C573.818 377.447 565.238 377.392 564.716 377.392L559.106 356.652L558.969 356.13L603.24 356.652L609.207 377.612Z" fill="#3A4ACE"/>
<path d="M556.274 491.57L164.073 490.58L141.222 490.525L111.332 490.47H108.39H98.9033L93.5413 490.442H84.137L80.0674 490.415L1.14871 490.277C-0.226183 479.293 -0.0611826 466.264 1.64368 451.191C2.33112 444.974 3.37605 438.318 4.91592 431.414C5.42922 429.122 5.99749 426.802 6.62077 424.455C7.69319 420.384 8.93061 416.285 10.388 412.16C10.498 411.866 10.608 411.564 10.7179 411.252C12.3403 406.713 14.2102 402.147 16.3825 397.636C34.8885 358.853 74.0453 322.765 155.824 323.48C331.535 325.048 295.293 253.587 418.29 248.113C468.391 245.885 517.172 293.361 486.017 367.132C462.452 422.997 586.027 404.375 556.274 491.57V491.57Z" fill="#D9E9FE"/>
<path d="M369.482 200.225C361.837 210.127 348.061 232.93 340.719 216.784C333.35 200.665 347.456 152.144 353.89 143.122C358.18 137.107 369.225 134.173 387.025 134.32C380.426 171.674 374.578 193.642 369.482 200.225Z" fill="#739AF0"/>
<path d="M386.668 115.313L392.745 114.323L413.341 114.736C413.066 116.634 412.956 118.312 412.983 119.907C413.038 124.17 414.083 127.719 415.046 132.89C415.348 139.546 407.291 144.167 396.649 142.902C389.555 142.059 386.264 138.758 386.778 133L386.75 130.249L386.668 115.313Z" fill="#FC9490"/>
<path d="M392.745 114.323L413.341 114.736C413.066 116.634 412.956 118.312 412.983 119.907C409.766 124.941 403.661 131.9 394.175 131.9C391.425 131.9 388.95 131.267 386.75 130.249L386.668 115.313L392.745 114.323Z" fill="#FF8585"/>
<path d="M414.935 111.408C412.543 124.28 395.934 123.868 388.758 123.043C387.419 122.896 386.319 122.74 385.458 122.575C383.203 121.97 381.938 118.367 381.333 113.663C380.151 104.366 381.636 90.723 383.203 87.2298C385.568 81.9761 390.022 76.3098 406.741 80.4082C423.46 84.5067 417.988 94.9315 414.935 111.408V111.408Z" fill="#FC9490"/>
<path d="M404.926 490.772C405.586 485.638 406.677 481.548 408.198 478.504C409.72 475.46 415.33 474.91 425.027 476.854C426.952 478.504 428.125 483.208 428.547 490.965L404.926 490.772Z" fill="#293EB7"/>
<path d="M309.151 490.662C309.646 488.984 311.214 486.179 316.301 485.354C323.67 484.171 336.594 479.77 338.794 470.033C340.242 463.541 346.273 464.54 356.888 473.031C358.189 483.391 357.694 489.269 355.403 490.662H309.151Z" fill="#293EB7"/>
<path d="M359.72 201.435C354.11 201.05 349.72 202.361 346.548 205.368C346.347 200.802 350.737 189.177 359.72 170.491C365.311 191.524 365.311 201.839 359.72 201.435Z" fill="#4A75CB"/>
<path d="M388.757 123.043C387.419 122.896 386.319 122.74 385.458 122.575C383.203 121.97 381.938 118.367 381.333 113.663C385.595 114.736 387.548 118.037 388.372 119.439C388.73 120.072 388.812 121.475 388.757 123.043Z" fill="#FF8585"/>
<path d="M377.923 130.332C371.727 120.1 371.04 114.763 375.861 114.323C383.065 113.636 385.98 118.532 387.025 120.347C387.722 121.539 387.63 124.84 386.75 130.249L377.923 130.332Z" fill="#FC9490"/>
<path d="M388.373 377.529C387.713 381.105 387.3 384.021 387.218 386.111C385.733 414.993 362.91 480.98 358.84 482.52C352.515 484.913 342.589 479.824 337.392 478.174C335.219 477.486 333.762 475.314 334.257 473.113C345.559 421.154 349.711 346.365 351.196 302.08C351.709 287.208 353.24 274.638 355.788 264.369C392.891 254.467 411.553 255.778 411.773 268.302C412.048 284.916 393.322 350.106 388.373 377.529Z" fill="#3A4ACE"/>
<path d="M388.373 377.529L351.196 302.08C351.709 287.208 353.24 274.638 355.788 264.369C392.891 254.467 411.553 255.778 411.773 268.302C412.048 284.916 393.322 350.106 388.373 377.529Z" fill="#293EB7"/>
<path d="M434.679 262.966C442.433 268.027 435.531 313.99 436.246 341.386C436.723 359.669 434.092 406.612 428.354 482.218C421.663 483.868 414.01 483.657 405.394 481.585L375.999 268.385C409.949 261.399 429.509 259.592 434.679 262.966V262.966Z" fill="#3A4ACE"/>
<path d="M437.208 267.807C433.102 269.641 427.208 271.356 419.527 272.951C410.948 274.739 399.427 276.307 385.265 276.389C370.233 276.481 359.876 273.941 354.193 268.77C353.23 268.798 354.715 264.067 356.035 241.649C356.503 234.057 356.942 224.43 357.245 212.245C357.547 201.298 357.74 188.287 357.74 172.856C357.767 161.936 367.722 150.521 376.026 142.985C376.008 142.838 375.998 142.682 375.998 142.517C375.778 137.016 375.778 132.413 375.998 128.709C383.258 126.307 387.905 127.196 389.94 131.377C391.095 134.109 392.506 137.529 394.174 141.637C395.274 142.022 396.457 142.269 397.722 142.379C405.421 142.875 415.045 137.318 415.045 132.89C432.882 135.916 444.596 141.426 450.187 149.421C455.329 156.738 448.757 176.57 436.026 191.945C435.861 192.147 435.687 192.358 435.504 192.578C435.559 193.128 435.604 193.678 435.641 194.228C435.659 194.394 435.678 194.559 435.696 194.724C435.751 195.237 435.797 195.76 435.834 196.291C435.834 196.346 435.834 196.392 435.834 196.429C435.87 196.832 435.907 197.227 435.944 197.612C435.962 197.887 435.98 198.171 435.999 198.464C436.035 198.923 436.063 199.39 436.081 199.867C436.099 200.087 436.118 200.317 436.136 200.555C436.154 200.995 436.182 201.444 436.219 201.903C436.237 202.104 436.246 202.306 436.246 202.508C436.283 203.15 436.319 203.801 436.356 204.461C436.356 204.516 436.356 204.571 436.356 204.626C436.393 205.249 436.429 205.882 436.466 206.524C436.466 206.689 436.466 206.854 436.466 207.019C436.503 207.606 436.53 208.211 436.549 208.834C436.567 208.926 436.576 209.018 436.576 209.109C436.631 210.595 436.686 212.098 436.741 213.62C436.741 213.657 436.741 213.703 436.741 213.758C436.851 216.362 436.952 219.048 437.043 221.817C437.043 221.927 437.043 222.037 437.043 222.147C437.062 222.679 437.08 223.211 437.098 223.743C437.117 224.439 437.144 225.136 437.181 225.833C437.181 226.053 437.19 226.273 437.208 226.493C437.227 227.08 437.245 227.667 437.263 228.254C437.263 228.492 437.273 228.73 437.291 228.969C437.309 229.647 437.337 230.335 437.373 231.032C437.373 231.142 437.373 231.252 437.373 231.362C437.41 232.187 437.447 233.012 437.483 233.837C437.502 233.984 437.511 234.131 437.511 234.277C437.548 234.974 437.575 235.671 437.593 236.368C437.612 236.551 437.621 236.744 437.621 236.946C437.658 237.752 437.703 238.578 437.758 239.421C437.758 239.439 437.758 239.458 437.758 239.476C437.795 240.338 437.841 241.218 437.896 242.117C437.914 242.263 437.923 242.419 437.923 242.584C437.96 243.299 438.006 244.024 438.061 244.757C438.061 244.959 438.07 245.161 438.088 245.362C438.198 247.123 438.318 248.902 438.446 250.699C438.464 250.9 438.482 251.111 438.501 251.331C438.556 252.028 438.611 252.734 438.666 253.449C438.684 253.688 438.702 253.926 438.721 254.164C438.794 255.081 438.867 255.998 438.941 256.915C439.161 259.253 439.656 267.752 437.208 267.807V267.807Z" fill="#739AF0"/>
<path d="M378.088 74.9893C382.983 74.6042 388.327 73.1556 394.12 70.6433C401.159 67.5902 410.041 70.9459 412.928 72.4862C412.873 72.0186 412.681 71.386 412.241 70.7259C413.102 71.3493 413.597 72.092 413.726 72.9538C413.863 73.0364 413.918 73.1189 413.89 73.1189C414.862 72.9539 415.659 73.0089 416.283 73.2839C415.843 73.2289 415.55 73.3389 415.403 73.614C415.366 73.6507 415.33 73.6873 415.293 73.724C426.292 79.0327 427.282 96.4166 423.762 100.432C420.921 103.66 417.804 108.904 414.413 116.166C413.166 114.442 412.8 112.168 413.313 109.344C414.083 105.081 410.426 105.081 405.779 103.156C401.132 101.203 405.009 95.7839 400.939 92.5107C396.869 89.21 381.993 91.1629 382.186 88.6323C376.658 86.6244 378.088 75.5394 378.088 74.9893V74.9893Z" fill="#293EB7"/>
<path d="M418.29 213.235C413.945 230.757 366.759 239.806 356.035 241.649C356.503 234.057 356.943 224.43 357.245 212.245L418.29 213.235Z" fill="#4A75CB"/>
<path d="M405.036 209.935C414.66 201.939 421.269 198.941 424.862 200.94C430.252 203.938 422.03 215.628 420.215 216.536C418.428 217.444 408.391 218.929 407.951 218.929L405.036 209.935Z" fill="#FC9490"/>
<path d="M353.89 201.848C360.398 200.252 377.181 202.324 404.239 208.064C409.702 210.283 412.213 213.904 411.773 218.929C394.395 222.651 372.772 223.807 346.906 222.395C345.054 210.292 347.383 203.443 353.89 201.848V201.848Z" fill="#739AF0"/>
<path d="M436.026 191.945C427.969 201.655 417.465 209.577 405.834 211.447C381.691 200.527 376.823 163.092 375.999 142.517C383.606 170.151 392.598 188.801 402.974 198.464C405.779 201.078 408.721 202.838 411.773 203.278C424.844 199.592 432.745 196.007 435.476 192.523C435.779 192.138 435.971 191.945 436.026 191.945V191.945Z" fill="#4A75CB"/>
<path d="M429.014 63.3268L425.495 82.4711C423.625 87.3122 412.653 89.3201 400.994 86.9546C392.827 85.2767 386.503 81.921 384.083 78.3727C383.065 76.8598 382.735 75.3195 383.313 73.8892L391.645 52.2969L429.014 63.3268Z" fill="#FB7369"/>
<path d="M428.602 65.1698L425.495 82.4711C423.625 87.3122 412.653 89.3202 400.994 86.9546C392.827 85.2768 386.503 81.921 384.083 78.3727C387.438 78.2352 392.36 76.8874 399.124 72.0188C407.099 66.2425 418.4 63.3819 428.602 65.1698V65.1698Z" fill="#9E322A"/>
<path d="M450.545 57.963L418.73 72.1562L373.744 56.1476L405.559 41.9545L450.545 57.963Z" fill="#FB7369"/>
<path d="M450.545 57.9632V59.9162L418.73 74.0818L373.744 58.1008V56.1478L418.73 72.1564L450.545 57.9632Z" fill="#9E322A"/>
<path d="M436.686 79.1428C436.494 79.1153 436.439 78.7027 436.439 78.1526L435.064 65.8298L411.828 57.9906C411.333 57.798 411.058 57.2479 411.223 56.7528C411.388 56.2302 411.938 55.9551 412.461 56.1202L436.356 64.207C436.741 64.3445 437.016 64.7021 437.016 65.1147V78.4276C437.016 78.9503 436.961 79.1153 436.686 79.1428V79.1428Z" fill="#9E322A"/>
<path d="M438.529 79.3905C439.757 80.5824 439.06 83.1405 436.439 87.0647C437.071 86.212 436.274 84.6992 435.256 82.1411C434.56 80.4357 434.954 79.1063 436.439 78.1527C436.622 77.8043 437.319 78.2169 438.529 79.3905Z" fill="#9E322A"/>
<path d="M625.403 249.626C622.929 253.147 617.787 255.347 610.967 256.805C610.912 256.805 610.857 256.832 610.802 256.832C610.619 256.869 610.426 256.915 610.225 256.97C610.142 256.97 610.06 256.997 609.977 256.997C609.794 257.034 609.601 257.071 609.4 257.107C609.29 257.162 609.18 257.162 609.042 257.19C608.85 257.217 608.657 257.272 608.465 257.272C608.272 257.3 608.052 257.355 607.86 257.382C607.658 257.419 607.457 257.456 607.255 257.492L606.568 257.63C606.375 257.63 606.183 257.658 605.99 257.685C605.55 257.768 605.11 257.823 604.643 257.905C604.45 257.905 604.258 257.933 604.065 257.96C603.598 258.015 603.13 258.098 602.663 258.153C602.47 258.153 602.278 258.208 602.03 258.208C601.453 258.29 600.875 258.373 600.243 258.4C600.051 258.428 599.858 258.428 599.666 258.483C598.621 258.565 597.603 258.675 596.558 258.758C596.366 258.758 596.173 258.785 595.953 258.785C594.881 258.868 593.781 258.95 592.654 259.033C592.461 259.033 592.269 259.06 592.021 259.06C590.289 259.17 588.474 259.253 586.659 259.335C586.467 259.363 586.274 259.363 586.082 259.363C585.257 259.418 584.404 259.445 583.552 259.5C582.727 259.528 581.875 259.528 581.05 259.555C580.857 259.61 580.665 259.61 580.472 259.61C578.987 259.647 577.502 259.684 576.017 259.721C575.825 259.776 575.632 259.776 575.44 259.776C569.061 259.968 562.544 260.106 556.247 260.381C544.12 260.931 532.736 261.893 524.322 264.452C495.999 272.978 482.855 228.088 480.738 212.823C477.63 190.515 547.695 156.545 549.922 155.06C607.062 116.689 636.21 234.332 625.403 249.626V249.626Z" fill="#D9E9FE"/>
<path d="M610.967 256.805C610.912 256.805 610.857 256.832 610.802 256.832C610.619 256.869 610.426 256.915 610.225 256.97C610.142 256.97 610.06 256.997 609.977 256.997C609.794 257.034 609.601 257.071 609.4 257.107C609.29 257.162 609.18 257.162 609.042 257.19C608.85 257.217 608.657 257.272 608.465 257.272C608.272 257.3 608.052 257.355 607.86 257.382C607.658 257.419 607.457 257.456 607.255 257.492L606.568 257.63C606.375 257.63 606.183 257.658 605.99 257.685C605.55 257.768 605.11 257.823 604.643 257.905C604.45 257.905 604.258 257.933 604.065 257.96C603.598 258.015 603.13 258.098 602.663 258.153C602.47 258.153 602.278 258.208 602.03 258.208C601.453 258.29 600.875 258.373 600.243 258.4C600.051 258.428 599.858 258.428 599.666 258.483C598.621 258.565 597.603 258.675 596.558 258.758C596.366 258.758 596.173 258.785 595.953 258.785C594.881 258.868 593.781 258.95 592.654 259.033C592.461 259.033 592.269 259.06 592.021 259.06C590.289 259.17 588.474 259.253 586.659 259.335C586.467 259.363 586.274 259.363 586.082 259.363C585.257 259.418 584.404 259.445 583.552 259.5C582.727 259.528 581.875 259.528 581.05 259.555C580.857 259.61 580.665 259.61 580.472 259.61C578.987 259.647 577.502 259.684 576.018 259.72C575.825 259.776 575.633 259.775 575.44 259.775C569.061 259.968 562.544 260.106 556.247 260.381C556.247 260.353 556.247 260.353 556.247 260.298V256.997C556.247 256.979 556.247 256.952 556.247 256.915C556.247 256.768 556.283 256.612 556.357 256.447C556.439 256.282 556.494 256.172 556.632 256.062C556.742 255.952 556.907 255.87 557.017 255.787C557.154 255.76 557.374 255.705 557.512 255.705H609.757C609.84 255.705 609.922 255.705 609.977 255.76C610.06 255.76 610.142 255.787 610.225 255.787C610.463 255.897 610.656 256.053 610.802 256.255C610.885 256.42 610.967 256.612 610.967 256.805V256.805Z" fill="#FB7369"/>
<path d="M557.017 261.426C557.182 261.481 557.374 261.508 557.512 261.508H557.374C557.237 261.508 557.127 261.481 557.017 261.426Z" fill="#F2564B"/>
<path d="M583.552 259.5C582.727 259.528 581.875 259.528 581.05 259.555C580.857 259.61 580.665 259.61 580.472 259.61C578.987 259.647 577.502 259.684 576.018 259.72C575.825 259.776 575.633 259.775 575.44 259.775C569.061 259.968 562.544 260.106 556.247 260.381C556.247 260.353 556.247 260.353 556.247 260.298V256.997C556.247 256.979 556.247 256.952 556.247 256.915C556.247 256.768 556.283 256.612 556.357 256.447C556.439 256.282 556.494 256.172 556.632 256.062C556.742 255.952 556.907 255.87 557.017 255.787C557.127 255.76 557.237 255.705 557.374 255.705H581.93C582.177 256.805 582.644 258.208 583.552 259.5V259.5Z" fill="#F2564B"/>
<path d="M604.643 255.705V257.905C604.45 257.905 604.258 257.933 604.065 257.96V255.705H604.643Z" fill="#F2564B"/>
<path d="M602.663 255.705V258.153C602.471 258.153 602.278 258.208 602.031 258.208V255.705H602.663Z" fill="#F2564B"/>
<path d="M600.243 255.705V258.4C600.051 258.428 599.858 258.428 599.666 258.483V255.705H600.243Z" fill="#F2564B"/>
<path d="M596.558 255.705V258.758C596.366 258.758 596.173 258.785 595.953 258.785V255.705H596.558Z" fill="#F2564B"/>
<path d="M592.654 255.705V259.033C592.461 259.033 592.269 259.06 592.021 259.06V255.705H592.654Z" fill="#F2564B"/>
<path d="M586.659 255.705V259.335C586.467 259.363 586.274 259.363 586.082 259.363V255.705H586.659Z" fill="#F2564B"/>
<path d="M581.05 255.705V259.555C580.857 259.61 580.665 259.61 580.472 259.61V255.705H581.05Z" fill="#F2564B"/>
<path d="M576.018 255.705V259.721C575.825 259.776 575.633 259.776 575.44 259.776V255.705H576.018Z" fill="#F2564B"/>
<path d="M606.568 255.705V257.63C606.375 257.63 606.183 257.658 605.99 257.685V255.705H606.568Z" fill="#F2564B"/>
<path d="M607.86 255.705V257.383C607.658 257.419 607.457 257.456 607.255 257.493V255.705H607.86Z" fill="#F2564B"/>
<path d="M609.042 255.705V257.19C608.85 257.217 608.657 257.272 608.465 257.272V255.705H609.042Z" fill="#F2564B"/>
<path d="M609.977 255.76V256.997C609.794 257.034 609.602 257.071 609.4 257.107V255.705H609.757C609.84 255.705 609.922 255.705 609.977 255.76V255.76Z" fill="#F2564B"/>
<path d="M610.802 256.255V256.832C610.619 256.869 610.427 256.915 610.225 256.97V255.787C610.463 255.897 610.656 256.053 610.802 256.255Z" fill="#F2564B"/>
<path d="M605.44 251.166V254.439C605.44 254.715 605.358 254.962 605.22 255.155C605.083 255.375 604.863 255.54 604.615 255.622C604.542 255.659 604.469 255.686 604.395 255.705C604.322 255.705 604.249 255.705 604.175 255.705H551.929C551.242 255.705 550.692 255.182 550.665 254.522C550.665 254.504 550.665 254.476 550.665 254.439V251.166C550.665 251.148 550.665 251.13 550.665 251.111C550.692 250.451 551.242 249.901 551.929 249.901H604.175C604.212 249.901 604.239 249.901 604.258 249.901C604.276 249.901 604.294 249.901 604.313 249.901C604.331 249.919 604.349 249.929 604.368 249.929C604.368 249.929 604.377 249.929 604.395 249.929C604.469 249.947 604.542 249.965 604.615 249.984C604.634 249.984 604.652 249.993 604.67 250.011C604.67 250.011 604.679 250.011 604.698 250.011C604.716 250.029 604.734 250.039 604.753 250.039C604.771 250.057 604.78 250.066 604.78 250.066C604.798 250.066 604.817 250.075 604.835 250.094C604.854 250.094 604.872 250.103 604.89 250.121C604.908 250.139 604.927 250.158 604.945 250.176C604.963 250.194 604.982 250.204 605 250.204C605.018 250.222 605.028 250.24 605.028 250.259C605.064 250.277 605.092 250.304 605.11 250.341C605.128 250.341 605.138 250.35 605.138 250.369C605.156 250.387 605.165 250.396 605.165 250.396C605.183 250.414 605.202 250.433 605.22 250.451C605.358 250.671 605.44 250.919 605.44 251.166V251.166Z" fill="#FB7369"/>
<path d="M579.785 255.705H551.792C551.187 255.705 550.692 255.182 550.665 254.522C550.665 254.504 550.665 254.476 550.665 254.439V251.166C550.665 251.148 550.665 251.13 550.665 251.111C550.692 250.451 551.187 249.901 551.792 249.901H576.347C576.347 249.956 576.357 250.002 576.375 250.039C576.787 251.744 577.695 254.027 579.785 255.705V255.705Z" fill="#F2564B"/>
<path d="M598.483 249.901H599.088V255.705H598.483V249.901Z" fill="#F2564B"/>
<path d="M596.476 249.901H597.081V255.705H596.476V249.901Z" fill="#F2564B"/>
<path d="M594.056 249.901H594.661V255.705H594.056V249.901Z" fill="#F2564B"/>
<path d="M590.371 249.901H590.976V255.705H590.371V249.901Z" fill="#F2564B"/>
<path d="M586.467 249.901H587.044V255.705H586.467V249.901Z" fill="#F2564B"/>
<path d="M580.472 249.901H581.077V255.705H580.472V249.901Z" fill="#F2564B"/>
<path d="M574.863 249.901H575.467V255.705H574.863V249.901Z" fill="#F2564B"/>
<path d="M569.858 249.901H570.463V255.705H569.858V249.901Z" fill="#F2564B"/>
<path d="M600.408 249.901H600.985V255.705H600.408V249.901Z" fill="#F2564B"/>
<path d="M601.673 249.901H602.25V255.705H601.673V249.901Z" fill="#F2564B"/>
<path d="M602.883 249.901H603.488V255.705H602.883V249.901Z" fill="#F2564B"/>
<path d="M604.175 249.901C604.249 249.901 604.322 249.91 604.395 249.929V255.705C604.322 255.705 604.249 255.705 604.175 255.705H603.79V249.901H604.175Z" fill="#F2564B"/>
<path d="M605.22 250.451V255.155C605.082 255.375 604.862 255.54 604.615 255.622V249.983C604.862 250.093 605.082 250.258 605.22 250.451Z" fill="#F2564B"/>
<path d="M608.135 245.5V248.773C608.135 249.048 608.052 249.296 607.915 249.488C607.777 249.708 607.557 249.873 607.337 249.956C607.246 249.993 607.163 250.02 607.09 250.038C607.017 250.038 606.943 250.038 606.87 250.038H554.624C554.404 250.038 554.212 249.983 554.047 249.901C553.662 249.708 553.414 249.351 553.359 248.911C553.359 248.892 553.359 248.874 553.359 248.856C553.359 248.837 553.359 248.81 553.359 248.773V245.5C553.359 245.482 553.359 245.463 553.359 245.445C553.387 244.785 553.937 244.235 554.624 244.235H606.87C606.943 244.235 607.017 244.244 607.09 244.262C607.163 244.28 607.246 244.299 607.337 244.317C607.557 244.427 607.777 244.592 607.915 244.785C608.052 245.005 608.135 245.252 608.135 245.5V245.5Z" fill="#FB7369"/>
<path d="M582.479 250.038H554.487C554.303 250.038 554.129 249.993 553.964 249.901C553.634 249.708 553.414 249.351 553.359 248.911C553.359 248.892 553.359 248.874 553.359 248.856C553.359 248.837 553.359 248.81 553.359 248.773V245.5C553.359 245.482 553.359 245.463 553.359 245.445C553.387 244.785 553.882 244.235 554.487 244.235H579.042C579.427 245.912 580.307 248.195 582.314 249.901C582.369 249.956 582.424 250.002 582.479 250.038V250.038Z" fill="#F2564B"/>
<path d="M601.178 244.235H601.783V250.038H601.178V244.235Z" fill="#F2564B"/>
<path d="M599.171 244.235H599.776V250.038H599.171V244.235Z" fill="#F2564B"/>
<path d="M596.751 244.235H597.356V250.038H596.751V244.235Z" fill="#F2564B"/>
<path d="M593.066 244.235H593.671V250.038H593.066V244.235Z" fill="#F2564B"/>
<path d="M589.161 244.235H589.766V250.038H589.161V244.235Z" fill="#F2564B"/>
<path d="M583.167 244.235H583.772V250.038H583.167V244.235Z" fill="#F2564B"/>
<path d="M577.557 244.235H578.162V250.038H577.557V244.235Z" fill="#F2564B"/>
<path d="M572.552 244.235H573.157V250.038H572.552V244.235Z" fill="#F2564B"/>
<path d="M603.103 244.235H603.68V250.038H603.103V244.235Z" fill="#F2564B"/>
<path d="M604.367 244.235H604.945V250.038H604.367V244.235Z" fill="#F2564B"/>
<path d="M605.577 244.235H606.182V250.038H605.577V244.235Z" fill="#F2564B"/>
<path d="M606.87 244.235C606.943 244.235 607.016 244.244 607.09 244.262V250.038C607.016 250.038 606.943 250.038 606.87 250.038H606.512V244.235H606.87Z" fill="#F2564B"/>
<path d="M607.915 244.785V249.488C607.777 249.708 607.557 249.873 607.337 249.956V244.317C607.557 244.427 607.777 244.592 607.915 244.785Z" fill="#F2564B"/>
<path d="M609.4 239.696V242.969C609.4 243.244 609.317 243.464 609.18 243.685C609.015 243.905 608.822 244.07 608.575 244.152C608.502 244.189 608.428 244.207 608.355 244.207C608.282 244.225 608.208 244.235 608.135 244.235H555.862C555.202 244.235 554.652 243.712 554.624 243.052C554.606 243.015 554.597 242.988 554.597 242.969V239.696C554.597 239.678 554.606 239.659 554.624 239.641C554.652 239.008 555.119 238.513 555.724 238.431C555.779 238.431 555.825 238.431 555.862 238.431H608.135C608.208 238.431 608.282 238.44 608.355 238.458C608.428 238.458 608.502 238.477 608.575 238.513C608.822 238.596 609.015 238.761 609.18 238.981C609.317 239.201 609.4 239.421 609.4 239.696V239.696Z" fill="#FB7369"/>
<path d="M583.717 244.235H555.752C555.147 244.235 554.652 243.712 554.624 243.052C554.606 243.015 554.597 242.988 554.597 242.969V239.696C554.597 239.678 554.606 239.659 554.624 239.641C554.652 239.008 555.064 238.513 555.614 238.431C555.651 238.431 555.697 238.431 555.752 238.431H580.28C580.298 238.431 580.307 238.431 580.307 238.431C580.692 240.136 581.6 242.502 583.717 244.235V244.235Z" fill="#F2564B"/>
<path d="M602.443 238.431H603.02V244.235H602.443V238.431Z" fill="#F2564B"/>
<path d="M600.436 238.431H601.013V244.235H600.436V238.431Z" fill="#F2564B"/>
<path d="M598.016 238.431H598.621V244.235H598.016V238.431Z" fill="#F2564B"/>
<path d="M594.331 238.431H594.908V244.235H594.331V238.431Z" fill="#F2564B"/>
<path d="M590.426 238.431H591.004V244.235H590.426V238.431Z" fill="#F2564B"/>
<path d="M584.432 238.431H585.009V244.235H584.432V238.431Z" fill="#F2564B"/>
<path d="M578.822 238.431H579.4V244.235H578.822V238.431Z" fill="#F2564B"/>
<path d="M573.818 238.431H574.395V244.235H573.818V238.431Z" fill="#F2564B"/>
<path d="M604.34 238.431H604.945V244.235H604.34V238.431Z" fill="#F2564B"/>
<path d="M605.605 238.431H606.21V244.235H605.605V238.431Z" fill="#F2564B"/>
<path d="M606.843 238.431H607.42V244.235H606.843V238.431Z" fill="#F2564B"/>
<path d="M608.135 238.431C608.208 238.431 608.282 238.44 608.355 238.458V244.207C608.282 244.225 608.208 244.235 608.135 244.235H607.75V238.431H608.135Z" fill="#F2564B"/>
<path d="M609.18 238.981V243.684C609.015 243.905 608.822 244.07 608.575 244.152V238.513C608.822 238.596 609.015 238.761 609.18 238.981Z" fill="#F2564B"/>
<path d="M605.55 233.892V237.166C605.55 237.441 605.467 237.688 605.33 237.881C605.192 238.101 604.973 238.266 604.725 238.348C604.652 238.385 604.578 238.403 604.505 238.403C604.487 238.422 604.459 238.431 604.423 238.431C604.423 238.431 604.413 238.431 604.395 238.431C604.377 238.431 604.358 238.431 604.34 238.431C604.322 238.431 604.303 238.431 604.285 238.431H552.039C551.352 238.431 550.802 237.908 550.774 237.248C550.774 237.211 550.774 237.184 550.774 237.166V233.892C550.774 233.874 550.774 233.856 550.774 233.837C550.774 233.819 550.774 233.801 550.774 233.782C550.829 233.232 551.214 232.792 551.709 232.655C551.728 232.655 551.746 232.655 551.764 232.655C551.856 232.636 551.948 232.627 552.039 232.627H604.285C604.322 232.627 604.358 232.627 604.395 232.627C604.413 232.627 604.432 232.627 604.45 232.627C604.468 232.645 604.487 232.655 604.505 232.655C604.578 232.655 604.652 232.673 604.725 232.71C604.973 232.792 605.192 232.985 605.33 233.177C605.467 233.397 605.55 233.617 605.55 233.892Z" fill="#FB7369"/>
<path d="M579.895 238.431H551.902C551.297 238.431 550.802 237.908 550.774 237.248C550.774 237.211 550.774 237.184 550.774 237.166V233.892C550.774 233.874 550.774 233.856 550.774 233.837C550.774 233.819 550.774 233.801 550.774 233.782C550.829 233.232 551.187 232.765 551.654 232.655C551.673 232.655 551.691 232.655 551.709 232.655C551.764 232.636 551.829 232.627 551.902 232.627H576.457C576.457 232.645 576.457 232.664 576.457 232.682C576.87 234.36 577.777 236.698 579.867 238.431C579.886 238.431 579.895 238.431 579.895 238.431V238.431Z" fill="#F2564B"/>
<path d="M598.593 232.627H599.198V238.431H598.593V232.627Z" fill="#F2564B"/>
<path d="M596.586 232.627H597.191V238.431H596.586V232.627Z" fill="#F2564B"/>
<path d="M594.166 232.627H594.771V238.431H594.166V232.627Z" fill="#F2564B"/>
<path d="M590.481 232.627H591.059V238.431H590.481V232.627Z" fill="#F2564B"/>
<path d="M586.577 232.627H587.154V238.431H586.577V232.627Z" fill="#F2564B"/>
<path d="M580.582 232.627H581.187V238.431H580.582V232.627Z" fill="#F2564B"/>
<path d="M574.973 232.627H575.578V238.431H574.973V232.627Z" fill="#F2564B"/>
<path d="M569.968 232.627H570.573V238.431H569.968V232.627Z" fill="#F2564B"/>
<path d="M600.518 232.627H601.096V238.431H600.518V232.627Z" fill="#F2564B"/>
<path d="M601.783 232.627H602.36V238.431H601.783V232.627Z" fill="#F2564B"/>
<path d="M602.993 232.627H603.598V238.431H602.993V232.627Z" fill="#F2564B"/>
<path d="M604.285 232.627C604.359 232.627 604.432 232.636 604.505 232.655V238.403C604.432 238.422 604.359 238.431 604.285 238.431H603.9V232.627H604.285Z" fill="#F2564B"/>
<path d="M605.33 233.177V237.881C605.193 238.101 604.973 238.266 604.725 238.348V232.71C604.973 232.792 605.193 232.985 605.33 233.177Z" fill="#F2564B"/>
<path d="M605.44 228.116V231.417C605.44 231.664 605.358 231.912 605.22 232.105C605.083 232.325 604.863 232.49 604.615 232.572C604.56 232.609 604.505 232.627 604.45 232.627C604.432 232.646 604.414 232.655 604.395 232.655C604.322 232.655 604.249 232.664 604.175 232.682H551.929C551.874 232.682 551.819 232.673 551.764 232.655C551.746 232.655 551.728 232.655 551.709 232.655C551.132 232.545 550.692 232.05 550.665 231.472C550.665 231.454 550.665 231.435 550.665 231.417V228.116C550.665 228.098 550.665 228.079 550.665 228.061C550.692 227.401 551.242 226.851 551.929 226.851H604.175C604.212 226.851 604.239 226.851 604.258 226.851C604.276 226.851 604.294 226.86 604.313 226.878C604.331 226.878 604.349 226.878 604.368 226.878C604.368 226.878 604.377 226.878 604.395 226.878C604.469 226.897 604.542 226.915 604.615 226.933C604.634 226.952 604.652 226.961 604.67 226.961C604.67 226.961 604.679 226.961 604.698 226.961C604.716 226.979 604.734 226.988 604.753 226.988C604.771 227.007 604.799 227.025 604.835 227.043C604.854 227.062 604.872 227.071 604.89 227.071C604.908 227.089 604.927 227.108 604.945 227.126C604.963 227.144 604.982 227.153 605 227.153C605 227.172 605 227.181 605 227.181C605.018 227.181 605.028 227.19 605.028 227.208C605.064 227.227 605.092 227.254 605.11 227.291C605.128 227.309 605.138 227.318 605.138 227.318C605.156 227.337 605.165 227.346 605.165 227.346C605.183 227.364 605.202 227.392 605.22 227.428C605.358 227.621 605.44 227.869 605.44 228.116V228.116Z" fill="#FB7369"/>
<path d="M579.785 232.682H551.792C551.774 232.682 551.746 232.673 551.709 232.655C551.691 232.655 551.673 232.655 551.654 232.655C551.104 232.572 550.692 232.077 550.665 231.472C550.665 231.454 550.665 231.435 550.665 231.417V228.116C550.665 228.098 550.665 228.079 550.665 228.061C550.692 227.401 551.187 226.851 551.792 226.851H576.347C576.347 226.906 576.357 226.952 576.375 226.988C576.787 228.694 577.695 230.949 579.73 232.627C579.748 232.646 579.766 232.664 579.785 232.682V232.682Z" fill="#F2564B"/>
<path d="M598.483 226.851H599.088V232.682H598.483V226.851Z" fill="#F2564B"/>
<path d="M596.476 226.851H597.081V232.682H596.476V226.851Z" fill="#F2564B"/>
<path d="M594.056 226.851H594.661V232.682H594.056V226.851Z" fill="#F2564B"/>
<path d="M590.371 226.851H590.976V232.682H590.371V226.851Z" fill="#F2564B"/>
<path d="M586.467 226.851H587.044V232.682H586.467V226.851Z" fill="#F2564B"/>
<path d="M580.472 226.851H581.077V232.682H580.472V226.851Z" fill="#F2564B"/>
<path d="M574.863 226.851H575.467V232.682H574.863V226.851Z" fill="#F2564B"/>
<path d="M569.858 226.851H570.463V232.682H569.858V226.851Z" fill="#F2564B"/>
<path d="M600.408 226.851H600.985V232.682H600.408V226.851Z" fill="#F2564B"/>
<path d="M601.673 226.851H602.25V232.682H601.673V226.851Z" fill="#F2564B"/>
<path d="M602.883 226.851H603.488V232.682H602.883V226.851Z" fill="#F2564B"/>
<path d="M604.175 226.851C604.249 226.851 604.322 226.86 604.395 226.878V232.655C604.322 232.655 604.249 232.664 604.175 232.682H603.79V226.851H604.175Z" fill="#F2564B"/>
<path d="M605.22 227.428V232.104C605.082 232.324 604.862 232.489 604.615 232.572V226.933C604.862 227.043 605.082 227.208 605.22 227.428Z" fill="#F2564B"/>
<path d="M608.135 222.45V225.751C608.135 225.998 608.052 226.246 607.915 226.438C607.777 226.658 607.557 226.823 607.337 226.906C607.246 226.943 607.163 226.97 607.09 226.988C607.017 226.988 606.943 226.988 606.87 226.988H554.624C554.404 226.988 554.212 226.961 554.047 226.851C553.662 226.658 553.414 226.301 553.359 225.861C553.359 225.842 553.359 225.824 553.359 225.806C553.359 225.787 553.359 225.769 553.359 225.751V222.45C553.359 222.432 553.359 222.413 553.359 222.395C553.387 221.735 553.937 221.185 554.624 221.185H606.87C606.943 221.185 607.017 221.194 607.09 221.212C607.163 221.23 607.246 221.249 607.337 221.267C607.557 221.377 607.777 221.542 607.915 221.762C608.052 221.955 608.135 222.202 608.135 222.45V222.45Z" fill="#FB7369"/>
<path d="M582.479 226.988H554.487C554.303 226.988 554.129 226.943 553.964 226.851C553.634 226.658 553.414 226.301 553.359 225.861C553.359 225.842 553.359 225.824 553.359 225.806C553.359 225.787 553.359 225.769 553.359 225.751V222.45C553.359 222.432 553.359 222.413 553.359 222.395C553.387 221.735 553.882 221.185 554.487 221.185H579.042C579.427 222.862 580.307 225.146 582.314 226.851C582.369 226.906 582.424 226.952 582.479 226.988V226.988Z" fill="#F2564B"/>
<path d="M601.178 221.185H601.783V226.988H601.178V221.185Z" fill="#F2564B"/>
<path d="M599.171 221.185H599.776V226.988H599.171V221.185Z" fill="#F2564B"/>
<path d="M596.751 221.185H597.356V226.988H596.751V221.185Z" fill="#F2564B"/>
<path d="M593.066 221.185H593.671V226.988H593.066V221.185Z" fill="#F2564B"/>
<path d="M589.161 221.185H589.766V226.988H589.161V221.185Z" fill="#F2564B"/>
<path d="M583.167 221.185H583.772V226.988H583.167V221.185Z" fill="#F2564B"/>
<path d="M577.557 221.185H578.162V226.988H577.557V221.185Z" fill="#F2564B"/>
<path d="M572.552 221.185H573.157V226.988H572.552V221.185Z" fill="#F2564B"/>
<path d="M603.103 221.185H603.68V226.988H603.103V221.185Z" fill="#F2564B"/>
<path d="M604.367 221.185H604.945V226.988H604.367V221.185Z" fill="#F2564B"/>
<path d="M605.577 221.185H606.182V226.988H605.577V221.185Z" fill="#F2564B"/>
<path d="M606.87 221.185C606.943 221.185 607.016 221.194 607.09 221.212V226.988C607.016 226.988 606.943 226.988 606.87 226.988H606.512V221.185H606.87Z" fill="#F2564B"/>
<path d="M607.915 221.762V226.438C607.777 226.658 607.557 226.823 607.337 226.906V221.267C607.557 221.377 607.777 221.542 607.915 221.762Z" fill="#F2564B"/>
<path d="M612.397 216.646V219.919C612.397 220.194 612.315 220.442 612.177 220.634C612.04 220.854 611.847 221.02 611.6 221.102C611.526 221.139 611.444 221.166 611.352 221.185C611.279 221.185 611.205 221.185 611.132 221.185H558.886C558.226 221.185 557.676 220.662 557.621 220.002C557.621 219.965 557.621 219.938 557.621 219.919V216.646C557.621 216.628 557.621 216.609 557.621 216.591C557.649 215.958 558.144 215.463 558.749 215.381C558.785 215.381 558.831 215.381 558.886 215.381H611.132C611.205 215.381 611.279 215.39 611.352 215.408C611.444 215.427 611.526 215.445 611.6 215.463C611.847 215.573 612.04 215.738 612.177 215.931C612.315 216.151 612.397 216.371 612.397 216.646V216.646Z" fill="#FB7369"/>
<path d="M586.742 221.185H558.749C558.144 221.185 557.649 220.662 557.621 220.002C557.621 219.965 557.621 219.938 557.621 219.919V216.646C557.621 216.628 557.621 216.609 557.621 216.591C557.649 215.958 558.089 215.463 558.611 215.381C558.666 215.381 558.712 215.381 558.749 215.381H583.304C583.717 217.086 584.624 219.452 586.742 221.185V221.185Z" fill="#F2564B"/>
<path d="M605.44 215.381H606.045V221.185H605.44V215.381Z" fill="#F2564B"/>
<path d="M603.433 215.381H604.038V221.185H603.433V215.381Z" fill="#F2564B"/>
<path d="M601.04 215.381H601.618V221.185H601.04V215.381Z" fill="#F2564B"/>
<path d="M597.328 215.381H597.933V221.185H597.328V215.381Z" fill="#F2564B"/>
<path d="M593.423 215.381H594.028V221.185H593.423V215.381Z" fill="#F2564B"/>
<path d="M587.429 215.381H588.034V221.185H587.429V215.381Z" fill="#F2564B"/>
<path d="M581.847 215.381H582.424V221.185H581.847V215.381Z" fill="#F2564B"/>
<path d="M576.815 215.381H577.42V221.185H576.815V215.381Z" fill="#F2564B"/>
<path d="M607.365 215.381H607.97V221.185H607.365V215.381Z" fill="#F2564B"/>
<path d="M608.63 215.381H609.235V221.185H608.63V215.381Z" fill="#F2564B"/>
<path d="M609.84 215.381H610.444V221.185H609.84V215.381Z" fill="#F2564B"/>
<path d="M611.132 215.381C611.205 215.381 611.279 215.39 611.352 215.408V221.157C611.279 221.175 611.205 221.185 611.132 221.185H610.774V215.381H611.132Z" fill="#F2564B"/>
<path d="M612.177 215.931V220.634C612.039 220.854 611.847 221.019 611.599 221.102V215.463C611.847 215.573 612.039 215.738 612.177 215.931Z" fill="#F2564B"/>
<path d="M605.55 210.842V214.115C605.55 214.39 605.467 214.638 605.33 214.831C605.192 215.051 604.973 215.216 604.725 215.298C604.652 215.335 604.578 215.362 604.505 215.381C604.487 215.381 604.459 215.381 604.423 215.381C604.404 215.381 604.386 215.381 604.368 215.381C604.368 215.381 604.358 215.381 604.34 215.381C604.322 215.381 604.303 215.381 604.285 215.381H552.039C551.352 215.381 550.802 214.858 550.774 214.198C550.774 214.18 550.774 214.152 550.774 214.115V210.842C550.774 210.824 550.774 210.806 550.774 210.787C550.802 210.127 551.352 209.577 552.039 209.577H604.285C604.303 209.577 604.322 209.577 604.34 209.577C604.395 209.577 604.45 209.586 604.505 209.604C604.578 209.623 604.652 209.641 604.725 209.659C604.762 209.678 604.798 209.696 604.835 209.714C604.872 209.733 604.899 209.742 604.918 209.742C604.936 209.76 604.954 209.779 604.973 209.797C604.991 209.797 605 209.797 605 209.797C605.018 209.815 605.037 209.834 605.055 209.852C605.092 209.87 605.128 209.907 605.165 209.962C605.183 209.962 605.202 209.971 605.22 209.989C605.22 210.008 605.229 210.017 605.248 210.017C605.248 210.035 605.257 210.054 605.275 210.072C605.293 210.09 605.312 210.109 605.33 210.127C605.467 210.347 605.55 210.595 605.55 210.842V210.842Z" fill="#FB7369"/>
<path d="M579.895 215.381H551.902C551.297 215.381 550.802 214.858 550.774 214.198C550.774 214.18 550.774 214.152 550.774 214.115V210.842C550.774 210.824 550.774 210.806 550.774 210.787C550.802 210.127 551.297 209.577 551.902 209.577H576.457C576.457 209.632 576.467 209.678 576.485 209.714C576.897 211.42 577.805 213.703 579.867 215.381C579.886 215.381 579.895 215.381 579.895 215.381V215.381Z" fill="#F2564B"/>
<path d="M598.593 209.577H599.198V215.381H598.593V209.577Z" fill="#F2564B"/>
<path d="M596.586 209.577H597.191V215.381H596.586V209.577Z" fill="#F2564B"/>
<path d="M594.166 209.577H594.771V215.381H594.166V209.577Z" fill="#F2564B"/>
<path d="M590.481 209.577H591.059V215.381H590.481V209.577Z" fill="#F2564B"/>
<path d="M586.577 209.577H587.154V215.381H586.577V209.577Z" fill="#F2564B"/>
<path d="M580.582 209.577H581.187V215.381H580.582V209.577Z" fill="#F2564B"/>
<path d="M574.973 209.577H575.578V215.381H574.973V209.577Z" fill="#F2564B"/>
<path d="M569.968 209.577H570.573V215.381H569.968V209.577Z" fill="#F2564B"/>
<path d="M600.518 209.577H601.096V215.381H600.518V209.577Z" fill="#F2564B"/>
<path d="M601.783 209.577H602.36V215.381H601.783V209.577Z" fill="#F2564B"/>
<path d="M602.993 209.577H603.598V215.381H602.993V209.577Z" fill="#F2564B"/>
<path d="M604.285 209.577C604.359 209.577 604.432 209.586 604.505 209.604V215.381C604.432 215.381 604.359 215.381 604.285 215.381H603.9V209.577H604.285Z" fill="#F2564B"/>
<path d="M605.33 210.127V214.831C605.193 215.051 604.973 215.216 604.725 215.298V209.659C604.973 209.769 605.193 209.934 605.33 210.127Z" fill="#F2564B"/>
<path d="M609.4 205.176V208.449C609.4 208.724 609.317 208.944 609.18 209.164C609.015 209.357 608.822 209.522 608.575 209.632C608.502 209.65 608.428 209.669 608.355 209.687C608.282 209.705 608.208 209.714 608.135 209.714H555.862C555.66 209.714 555.477 209.669 555.312 209.577C554.927 209.384 554.652 208.999 554.624 208.559C554.624 208.541 554.624 208.523 554.624 208.504C554.606 208.486 554.597 208.468 554.597 208.449V205.176C554.597 205.158 554.606 205.13 554.624 205.093C554.652 204.488 555.119 203.993 555.724 203.911C555.779 203.911 555.825 203.911 555.862 203.911H608.135C608.208 203.911 608.282 203.911 608.355 203.911C608.428 203.929 608.502 203.956 608.575 203.993C608.822 204.076 609.015 204.241 609.18 204.461C609.317 204.653 609.4 204.901 609.4 205.176V205.176Z" fill="#FB7369"/>
<path d="M583.717 209.714H555.752C555.568 209.714 555.394 209.669 555.229 209.577C554.899 209.384 554.652 208.999 554.624 208.559C554.624 208.541 554.624 208.523 554.624 208.504C554.606 208.486 554.597 208.468 554.597 208.449V205.176C554.597 205.158 554.606 205.13 554.624 205.093C554.652 204.488 555.064 203.993 555.614 203.911C555.651 203.911 555.697 203.911 555.752 203.911H580.28C580.298 203.911 580.307 203.911 580.307 203.911C580.665 205.589 581.545 207.872 583.579 209.577C583.634 209.632 583.68 209.678 583.717 209.714V209.714Z" fill="#F2564B"/>
<path d="M602.443 203.911H603.02V209.714H602.443V203.911Z" fill="#F2564B"/>
<path d="M600.436 203.911H601.013V209.714H600.436V203.911Z" fill="#F2564B"/>
<path d="M598.016 203.911H598.621V209.714H598.016V203.911Z" fill="#F2564B"/>
<path d="M594.331 203.911H594.908V209.714H594.331V203.911Z" fill="#F2564B"/>
<path d="M590.426 203.911H591.004V209.714H590.426V203.911Z" fill="#F2564B"/>
<path d="M584.432 203.911H585.009V209.714H584.432V203.911Z" fill="#F2564B"/>
<path d="M578.822 203.911H579.4V209.714H578.822V203.911Z" fill="#F2564B"/>
<path d="M573.818 203.911H574.395V209.714H573.818V203.911Z" fill="#F2564B"/>
<path d="M604.34 203.911H604.945V209.714H604.34V203.911Z" fill="#F2564B"/>
<path d="M605.605 203.911H606.21V209.714H605.605V203.911Z" fill="#F2564B"/>
<path d="M606.843 203.911H607.42V209.714H606.843V203.911Z" fill="#F2564B"/>
<path d="M608.135 203.911C608.208 203.911 608.282 203.911 608.355 203.911V209.687C608.282 209.705 608.208 209.714 608.135 209.714H607.75V203.911H608.135Z" fill="#F2564B"/>
<path d="M609.18 204.461V209.164C609.015 209.357 608.822 209.522 608.575 209.632V203.993C608.822 204.076 609.015 204.241 609.18 204.461Z" fill="#F2564B"/>
<path d="M605.55 199.372V202.645C605.55 202.92 605.467 203.14 605.33 203.36C605.192 203.581 604.973 203.746 604.725 203.828C604.652 203.865 604.578 203.883 604.505 203.883C604.487 203.901 604.459 203.911 604.423 203.911C604.423 203.911 604.413 203.911 604.395 203.911C604.377 203.911 604.358 203.911 604.34 203.911C604.322 203.911 604.303 203.911 604.285 203.911H552.039C551.352 203.911 550.802 203.388 550.774 202.7C550.774 202.682 550.774 202.664 550.774 202.645V199.372C550.774 199.354 550.774 199.326 550.774 199.29C550.802 198.629 551.352 198.107 552.039 198.107H604.285C604.358 198.107 604.432 198.116 604.505 198.134C604.578 198.134 604.652 198.153 604.725 198.189C604.973 198.272 605.192 198.437 605.33 198.657C605.467 198.849 605.55 199.097 605.55 199.372V199.372Z" fill="#FB7369"/>
<path d="M579.895 203.911H551.902C551.297 203.911 550.802 203.388 550.774 202.7C550.774 202.682 550.774 202.664 550.774 202.645V199.372C550.774 199.354 550.774 199.326 550.774 199.29C550.802 198.629 551.297 198.107 551.902 198.107H576.457C576.842 199.812 577.75 202.178 579.867 203.911C579.886 203.911 579.895 203.911 579.895 203.911V203.911Z" fill="#F2564B"/>
<path d="M598.593 198.107H599.198V203.911H598.593V198.107Z" fill="#F2564B"/>
<path d="M596.586 198.107H597.191V203.911H596.586V198.107Z" fill="#F2564B"/>
<path d="M594.166 198.107H594.771V203.911H594.166V198.107Z" fill="#F2564B"/>
<path d="M590.481 198.107H591.059V203.911H590.481V198.107Z" fill="#F2564B"/>
<path d="M586.577 198.107H587.154V203.911H586.577V198.107Z" fill="#F2564B"/>
<path d="M580.582 198.107H581.187V203.911H580.582V198.107Z" fill="#F2564B"/>
<path d="M574.973 198.107H575.578V203.911H574.973V198.107Z" fill="#F2564B"/>
<path d="M569.968 198.107H570.573V203.911H569.968V198.107Z" fill="#F2564B"/>
<path d="M600.518 198.107H601.096V203.911H600.518V198.107Z" fill="#F2564B"/>
<path d="M601.783 198.107H602.36V203.911H601.783V198.107Z" fill="#F2564B"/>
<path d="M602.993 198.107H603.598V203.911H602.993V198.107Z" fill="#F2564B"/>
<path d="M604.285 198.107C604.359 198.107 604.432 198.116 604.505 198.134V203.883C604.432 203.901 604.359 203.911 604.285 203.911H603.9V198.107H604.285Z" fill="#F2564B"/>
<path d="M605.33 198.657V203.361C605.193 203.581 604.973 203.746 604.725 203.828V198.189C604.973 198.272 605.193 198.437 605.33 198.657Z" fill="#F2564B"/>
<path d="M587.731 185.124L545.935 192.358C545.137 192.496 544.368 191.945 544.23 191.148L540.298 168.208C540.16 167.41 540.683 166.64 541.48 166.502L583.277 159.296C584.074 159.158 584.844 159.708 584.982 160.478L588.941 183.446C589.079 184.244 588.529 184.986 587.731 185.124V185.124Z" fill="#699FF0"/>
<path d="M586.274 168.015L541.59 175.717L540.71 170.601L585.394 162.899L586.274 168.015Z" fill="#365DA4"/>
<path d="M573.24 175.854L545.88 180.585L545.192 176.57L572.525 171.839L573.24 175.854Z" fill="#AFCDFB"/>
<path d="M551.792 188.122L548.41 188.7C547.805 188.81 547.227 188.397 547.117 187.792L546.622 184.876C546.512 184.271 546.925 183.694 547.53 183.584L550.912 183.006C551.517 182.896 552.094 183.308 552.204 183.914L552.699 186.829C552.809 187.434 552.397 188.012 551.792 188.122Z" fill="#AFCDFB"/>
<path opacity="0.2" d="M556.714 182.098L556.631 181.686C556.604 181.466 556.741 181.246 556.989 181.191L583.854 176.569C584.074 176.514 584.294 176.679 584.349 176.927L584.404 177.34C584.459 177.56 584.294 177.78 584.074 177.835L557.209 182.456C556.961 182.483 556.741 182.346 556.714 182.098Z" fill="#AFCDFB"/>
<path opacity="0.2" d="M557.127 184.464L557.044 184.079C557.016 183.859 557.154 183.638 557.401 183.583L584.267 178.962C584.487 178.907 584.707 179.072 584.762 179.293L584.817 179.705C584.872 179.925 584.707 180.145 584.487 180.173L557.594 184.821C557.374 184.849 557.154 184.711 557.127 184.464V184.464Z" fill="#AFCDFB"/>
<path opacity="0.2" d="M584.844 182.483L558.006 187.104C557.787 187.132 557.539 186.994 557.512 186.747L557.429 186.307C557.402 186.059 557.539 185.839 557.786 185.784L584.624 181.163C584.872 181.108 585.092 181.273 585.147 181.521L585.202 181.961C585.257 182.208 585.092 182.428 584.844 182.483V182.483Z" fill="#AFCDFB"/>
<path d="M529.876 251.249L521.957 250.561C522.25 247.315 521.929 243.51 520.994 239.146C519.977 234.332 517.942 228.611 513.955 223.33C509.427 217.315 500.435 212.621 486.979 209.247V208.092L487.694 208.009C487.493 207.862 487.254 207.752 486.979 207.679V204.901C487.557 204.901 488.409 204.928 489.262 205.121C488.794 205.011 487.777 204.791 486.979 204.708V203.278C516.21 204.048 525.751 221.707 528.721 235.378C530.004 241.227 530.389 246.518 529.876 251.249Z" fill="#6D89D0"/>
<path d="M564.606 248.691L529.876 251.249C529.711 245.913 528.309 240.384 526.961 236.175C526.063 233.388 525.174 231.041 524.294 229.134C517.365 213.95 504.926 205.332 486.979 203.278L516.87 191.01C531.306 192.111 541.453 199.042 548.547 207.762C557.786 219.131 563.139 232.774 564.606 248.691V248.691Z" fill="#3A4ACE"/>
<path d="M564.606 248.691L529.876 251.249L521.957 250.561C522.25 247.315 521.929 243.51 520.994 239.146C522.672 238.156 524.624 237.166 526.961 236.175C527.566 235.919 528.153 235.653 528.721 235.378C550.857 225.173 548.794 209.274 548.547 207.761C557.786 219.131 563.139 232.774 564.606 248.691V248.691Z" fill="#6D89D0"/>
<path fill-rule="evenodd" clip-rule="evenodd" d="M561.884 251.359L530.921 250.754L531.031 250.176C531.059 250.066 532.653 240.989 528.941 230.674C526.769 224.623 523.222 219.342 518.41 214.968C512.36 209.467 504.303 205.369 494.432 202.81L492.919 202.398L517.062 192.798H517.172C517.42 192.771 523.634 192.688 531.636 196.484C536.338 198.685 540.655 201.793 544.478 205.671C549.235 210.54 553.249 216.646 556.412 223.853C556.659 224.403 562.516 237.606 562.214 245.555L561.884 251.359ZM532.159 249.763L560.921 250.313L561.196 245.5C561.306 242.309 560.371 237.661 558.446 231.994C556.989 227.676 555.477 224.293 555.477 224.265C552.369 217.196 548.437 211.2 543.763 206.414C540.05 202.618 535.843 199.592 531.251 197.419C526.301 195.054 521.984 194.256 519.482 193.953C518.162 193.816 516.842 193.981 515.605 194.476L498.859 201.133C497.979 201.49 498.034 202.728 498.941 203.03C507.081 205.644 513.845 209.412 519.125 214.198C524.074 218.709 527.704 224.155 529.931 230.372C531.911 235.9 532.378 241.016 532.433 244.345C532.461 246.93 532.268 248.828 532.159 249.763V249.763Z" fill="#6D89D0"/>
<path d="M545.22 215.793C545.22 220.882 542.25 223.963 537.135 223.963C532.048 223.963 526.769 220.882 526.769 215.793C526.769 210.705 529.574 207.652 534.688 207.652C539.775 207.652 545.22 210.705 545.22 215.793V215.793Z" fill="#6D89D0"/>
<path d="M544.147 265.552C559.167 265.552 571.343 253.372 571.343 238.348C571.343 223.324 559.167 211.145 544.147 211.145C529.128 211.145 516.952 223.324 516.952 238.348C516.952 253.372 529.128 265.552 544.147 265.552Z" fill="#FC9490"/>
<path d="M541.755 265.552C556.775 265.552 568.95 253.372 568.95 238.348C568.95 223.324 556.775 211.145 541.755 211.145C526.736 211.145 514.56 223.324 514.56 238.348C514.56 253.372 526.736 265.552 541.755 265.552Z" fill="#FB7369"/>
<path fill-rule="evenodd" clip-rule="evenodd" d="M541.755 263.461C528.116 263.461 516.98 252.349 516.98 238.678C516.98 225.008 528.116 213.895 541.755 213.895C555.422 213.895 566.531 225.008 566.531 238.678C566.531 252.349 555.422 263.461 541.755 263.461ZM541.755 215.381C528.914 215.381 518.465 225.833 518.465 238.678C518.465 251.524 528.914 261.976 541.755 261.976C554.624 261.976 565.073 251.524 565.073 238.678C565.073 225.833 554.624 215.381 541.755 215.381Z" fill="#F2564B"/>
<path d="M545.165 245.857C545.238 245.326 545.22 244.849 545.11 244.427C545.018 244.005 544.817 243.611 544.505 243.244C544.212 242.859 543.808 242.502 543.295 242.172C542.782 241.823 542.149 241.466 541.398 241.099C540.114 240.475 538.96 239.843 537.933 239.201C536.888 238.541 536.017 237.835 535.321 237.083C534.624 236.313 534.111 235.451 533.781 234.497C533.469 233.544 533.387 232.444 533.533 231.197C533.662 230.115 533.964 229.143 534.441 228.281C534.936 227.438 535.577 226.732 536.366 226.163C537.154 225.576 538.07 225.136 539.115 224.843C540.16 224.549 541.306 224.421 542.553 224.458L543.02 220.359L546.32 220.772L545.825 224.898C546.98 225.191 548.016 225.631 548.932 226.218C549.83 226.805 550.573 227.511 551.159 228.336C551.728 229.161 552.14 230.115 552.397 231.197C552.635 232.26 552.681 233.425 552.534 234.69L546.595 234.002C546.76 232.462 546.549 231.279 545.962 230.454C545.376 229.611 544.514 229.125 543.378 228.996C542.773 228.923 542.232 228.941 541.755 229.051C541.297 229.18 540.903 229.372 540.573 229.629C540.261 229.904 540.014 230.234 539.83 230.619C539.629 231.004 539.5 231.435 539.445 231.912C539.39 232.389 539.409 232.82 539.5 233.205C539.592 233.608 539.794 233.993 540.105 234.36C540.399 234.727 540.802 235.084 541.315 235.433C541.847 235.781 542.498 236.157 543.268 236.56C544.551 237.221 545.706 237.872 546.732 238.513C547.759 239.173 548.62 239.889 549.317 240.659C550.014 241.429 550.527 242.291 550.857 243.244C551.169 244.198 551.251 245.298 551.104 246.545C550.976 247.664 550.665 248.645 550.17 249.488C549.675 250.332 549.033 251.029 548.245 251.579C547.456 252.147 546.54 252.569 545.495 252.844C544.432 253.119 543.277 253.247 542.03 253.229L541.59 257.025L538.318 256.64L538.758 252.844C537.64 252.606 536.576 252.23 535.568 251.716C534.542 251.203 533.662 250.543 532.928 249.736C532.195 248.911 531.645 247.92 531.279 246.765C530.912 245.61 530.82 244.271 531.004 242.749L536.943 243.464C536.833 244.363 536.87 245.133 537.053 245.775C537.236 246.398 537.52 246.921 537.905 247.343C538.29 247.746 538.74 248.058 539.253 248.278C539.785 248.48 540.325 248.617 540.875 248.691C541.517 248.764 542.094 248.746 542.608 248.636C543.121 248.526 543.552 248.342 543.9 248.085C544.267 247.847 544.56 247.535 544.78 247.15C544.982 246.765 545.11 246.334 545.165 245.857V245.857Z" fill="#F2564B"/>
<path d="M297.96 386.634C296.86 399.287 289.711 403.22 286.576 402.862C283.414 402.532 265.045 395.518 264.633 398.104C264.248 400.662 275.302 409.079 283.056 409.464C273.304 420.228 265.192 424.06 258.721 420.961C248.986 416.285 248.161 408.914 242.112 406.136C236.035 403.385 230.865 403.385 233.368 406.218C235.87 409.024 246.842 411.774 250.306 417.908C253.771 424.042 256.878 428.168 246.814 426.655C236.75 425.142 220.416 417.798 219.701 409.354C219.665 408.987 219.637 408.639 219.619 408.309C219.6 408.749 219.628 409.097 219.701 409.354C217.611 409.739 213.267 413.59 210.104 416.615C209.637 417.138 208.895 417.853 207.877 418.816C207.437 419.256 207.08 419.614 206.832 419.889C202.616 424.583 199.344 431.891 197.015 441.811L194.816 441.619C195.384 430.965 199.701 422.648 207.767 416.67C213.413 411.664 217.153 406.42 218.986 400.937C209.454 389.806 209.16 380.711 218.106 373.651C224.632 369.708 230.554 367.893 235.87 368.205C228.336 380.857 225.787 387.817 228.226 389.082C230.664 390.347 234.358 382.994 239.307 367.022C254.174 365.573 263.991 366.004 268.757 368.315C256.072 378.712 251.058 384.222 253.716 384.846C256.392 385.451 264.596 380.656 278.327 370.46C292.149 372.807 298.693 378.199 297.96 386.634V386.634Z" fill="#6D89D0"/>
<path d="M164.788 389.054C160.526 398.159 139.325 399.672 127.501 397.251C115.677 394.803 120.819 391.475 127.199 386.056C133.551 380.665 146.887 382.068 150.847 379.95C154.779 377.832 149.004 375.714 141.14 376.319C133.248 376.924 129.316 384.818 116.584 386.029C108.097 386.836 100.617 379.253 94.1463 363.281C102.946 366.004 118.702 361.163 119.307 358.137C119.912 355.084 96.5936 355.414 92.9364 354.479C89.3067 353.571 82.9547 346.31 86.8868 331.759C89.5083 322.059 99.0042 318.721 115.375 321.747C126.484 338.727 133.661 347.419 136.905 347.823C140.132 348.226 136.795 340.038 126.896 323.26C133.166 322.655 144.275 326.194 160.223 333.877C159.215 353.681 160.333 363.382 163.578 362.979C166.805 362.575 166.805 353.782 163.578 336.6C169.628 338.416 175.485 342.862 181.149 349.941C188.225 361.457 184.183 371.46 169.023 379.95C169.023 379.95 167.611 382.985 164.788 389.054V389.054Z" fill="#3A4ACE"/>
<path d="M179.307 435.155L176.777 434.467C178.244 422.456 177.593 412.976 174.825 406.026C174.66 405.641 174.412 405.09 174.082 404.43C173.34 402.945 172.817 401.845 172.487 401.047C170.233 396.399 166.96 390.32 164.788 389.054C174.284 375.705 152.057 358.119 98.106 336.298C140.526 350.051 164.165 364.601 169.023 379.95C168.821 386.826 170.838 394.207 175.072 402.092C181.617 412.031 183.028 423.052 179.307 435.155V435.155Z" fill="#6D89D0"/>
<path d="M205.182 362.401C185.201 351.215 179.875 338.021 189.206 322.82C196.667 313.504 204.394 307.645 212.387 305.243C208.115 327.89 208.115 339.479 212.387 340.011C216.64 340.543 218.097 327.752 216.759 301.64C237.804 291.518 252.46 286.86 260.728 287.667C247.676 309.782 243.276 320.573 247.529 320.041C251.8 319.51 261.259 308.049 275.907 285.659C297.483 281.661 309.995 286.062 313.441 298.862C318.638 318.033 310.251 327.633 305.467 328.816C300.682 330.026 269.912 329.614 270.71 333.629C271.507 337.618 292.268 344.027 303.872 340.423C295.348 361.475 285.494 371.46 274.312 370.378C257.511 368.782 252.313 358.413 241.947 357.587C231.553 356.79 223.963 359.595 229.16 362.401C234.357 365.207 251.929 363.309 260.315 370.46C268.702 377.584 275.494 381.985 259.93 385.176C244.339 388.367 216.374 386.386 210.764 374.394C207.043 366.398 205.182 362.401 205.182 362.401V362.401Z" fill="#3A4ACE"/>
<path d="M210.764 374.394C207.905 376.071 203.587 384.048 200.59 390.21C200.178 391.255 199.49 392.685 198.5 394.638C198.088 395.546 197.758 396.261 197.538 396.756C193.871 405.925 193.01 418.422 194.953 434.247L191.626 435.155C186.713 419.201 188.564 404.669 197.18 391.557C202.79 381.178 205.457 371.46 205.182 362.401C211.58 342.156 242.744 322.975 298.675 304.858C227.565 333.63 198.262 356.808 210.764 374.394V374.394Z" fill="#6D89D0"/>
<path d="M262.873 428.306C262.873 460.735 236.585 487.031 204.165 487.031C171.745 487.031 145.485 460.735 145.485 428.306H262.873Z" fill="#3A4ACE"/>
<path d="M218.629 486.591C216.227 486.885 213.789 487.031 211.314 487.031C178.922 487.031 152.634 460.735 152.634 428.306H167.208C167.208 458.26 189.646 482.988 218.629 486.591Z" fill="#6D89D0"/>
<path d="M263.67 490.662H144.66C144.66 486.674 147.904 483.428 151.919 483.428H256.438C260.425 483.428 263.67 486.674 263.67 490.662Z" fill="#3A4ACE"/>
<path opacity="0.2" d="M263.313 430.121H144.44C143.945 430.121 143.56 429.708 143.56 429.213C143.56 428.718 143.945 428.306 144.44 428.306H263.313C263.808 428.306 264.193 428.718 264.193 429.213C264.193 429.708 263.808 430.121 263.313 430.121Z" fill="#D9E9FE"/>
<path d="M518.355 489.754H482.69C480.765 488.132 484.01 484.446 487.392 484.198C488.85 484.088 490.72 484.391 492.837 484.858C493.332 478.312 496.137 448.99 506.696 450.173C518.575 451.493 506.696 463.101 503.341 469.95C500.839 475.039 498.226 482.328 497.017 485.766C497.979 485.986 498.996 486.179 500.014 486.371C501.581 481.53 507.438 465.274 514.89 466.209C523.634 467.337 520.115 473.856 513.928 477.734C509.363 480.567 503.781 484.611 501.141 486.564C503.396 486.949 505.733 487.196 508.098 487.141C514.23 486.976 517.2 488.792 518.355 489.754V489.754Z" fill="#3A4ACE"/>
<path d="M67.2258 488.434C68.0783 488.737 69.2332 488.847 70.5531 488.819C64.531 485.298 44.8976 479.137 54.2469 477.872C62.7987 476.716 69.2332 485.436 71.378 488.792C72.3404 488.764 73.3853 488.654 74.4853 488.517C65.9609 478.834 40.3605 448.523 54.2194 449.293C67.8858 450.063 74.6228 478.532 76.5201 488.241C77.51 488.104 78.5274 487.939 79.4898 487.801C79.0499 484.693 79.0224 479.467 83.6695 477.844C89.994 475.644 88.4266 484.226 86.1443 486.894C87.7667 486.784 89.0316 486.839 89.664 487.224C91.3689 488.269 92.0838 489.699 92.3588 490.607H54.3569C56.8042 489.562 63.3486 487.059 67.2258 488.434V488.434Z" fill="#3A4ACE"/>
</svg>
